<?xml version="1.0" encoding="UTF-8"?>
<svg id="Calque_2" data-name="Calque 2" xmlns="http://www.w3.org/2000/svg" xmlns:xlink="http://www.w3.org/1999/xlink" viewBox="0 0 145.35 149.25">
  <defs>
    <style>
      .cls-1 {
        fill: url(#Dégradé_sans_nom_183);
      }
    </style>
    <radialGradient id="Dégradé_sans_nom_183" data-name="Dégradé sans nom 183" cx="68.83" cy="73.11" fx="68.83" fy="112.93" r="100.95" gradientUnits="userSpaceOnUse">
      <stop offset=".35" stop-color="#f9b03d"/>
      <stop offset="1" stop-color="#d4155b"/>
    </radialGradient>
  </defs>
  <g id="EcoSim_Color" data-name="EcoSim Color">
    <g id="Calque_1_-_copie" data-name="Calque 1 - copie">
      <path class="cls-1" d="M144.74,70.52c1.12-1.84.58-3.74-.68-5.19,1.12-2.36-.28-4.64-2.32-5.97-5.71-3.71-19.53-2.5-26.12-1.46-14.82,2.34-29.44,7.66-42.94,14.23.07-.12.14-.24.21-.36,11.09-11.31,21.54-23.55,28.82-37.71,2.94-5.71,8.62-18.64,5.65-24.73-.99-2.02-2.58-2.55-4.31-2.31-1.07-1.54-2.52-1.9-4.05-1.62-1.14-1.47-2.58-1.77-4.06-1.44-1.2-1.4-2.63-1.64-4.07-1.25-1.31-1.37-2.79-1.51-4.24-.99-.09-.11-.18-.22-.28-.32-3.75-3.95-8.27,1.5-10.19,4.62-8.31,13.54-9.61,39.7-8.76,55.37l.74,8.91c-6.9-13.25-15.5-26.26-25.97-36.9-4.64-4.72-16.26-15.09-23.13-14.5-2.44.21-4.06,1.26-4.41,3.76-1.76.53-2.86,1.66-3.04,3.73-1.67.64-2.67,1.83-2.73,3.86-1.58.74-2.47,1.98-2.41,3.98-1.23.7-1.97,1.7-2.09,3.14-1.87.95-2.84,2.4-2.44,4.67,1.07,6.13,10.95,12.85,16.07,15.91,13.48,8.05,29.1,12.85,44.46,16.15-.99.08-1.98.16-2.96.33-16.82,2.94-41.84,9.89-54.66,21.6-4.51,4.12-6.76,9.43-2.84,11.73-.25,1.9.39,3.5,2.25,4.42-.11,1.89.66,3.43,2.6,4.21.04,1.88.93,3.35,2.95,3.98.16,1.65.97,2.93,2.61,3.53.64,2.76,3.26,4.18,8.72,2.48,14.95-4.67,32.57-25.9,41.25-38.72l3.18-5,1.81-2.49c-1.35,10.08-2.19,20.29-1.76,30.47.4,9.57,2.63,30.76,10.28,37.17,2.24,1.88,4.22,1.76,5.78.58,1.82.85,3.37.46,4.59-.62,1.91.75,3.45.24,4.6-.96,1.99.65,3.52.02,4.61-1.3,2.26.6,3.85-.34,4.85-2.03,3.04.06,4.49-2.86,4.75-6.23.95-11.94-9.73-30.59-16.31-40.32-4.82-7.13-10.43-13.66-16.05-20.14.29.11.58.23.87.34,12.4,5.73,25.37,10.5,38.86,12.9,7.56,1.35,24.8,3.45,30.56-2.23,1.32-1.3,1.46-2.94.92-4.47,1.01-1.31,1.01-2.82.43-4.21.98-1.38.92-2.91.26-4.28.96-1.45.82-2.99.09-4.34ZM141.53,71.61c-.8-.5-1.7-.95-2.69-1.36.71-.41,1.37-.84,1.98-1.29.85.52,1.49,1.02,1.95,1.52-.34.39-.76.77-1.23,1.13ZM142.68,74.72c-.34.35-.75.69-1.21,1.02-.51-.37-1.08-.71-1.69-1.05.63-.33,1.22-.68,1.77-1.05.46.37.83.73,1.12,1.08ZM142.44,78.91c-.33.32-.73.62-1.17.9-.48-.39-1.01-.76-1.58-1.12.6-.28,1.18-.58,1.71-.91.43.39.77.77,1.04,1.13ZM142.03,83.02c-2.41,2.11-7.95,3.19-10.65,3.51-9.7,1.14-21.38-.42-32.4-3.04,5.03.88,10.1,1.5,15.21,1.77,6.47.35,19.85.4,26.89-3.41.39.41.71.8.95,1.17ZM99.44,141.7c-.3-.07-.61-.17-.95-.31-.38-.16-.76-.36-1.14-.58,2.01-11.8-6.13-31.12-11.38-41.4-.66-1.29-1.35-2.57-2.06-3.84,8.19,13,15.99,29.05,16.19,41.14.03,1.51-.1,3.48-.66,4.99ZM94.71,143.48c-.56-.27-1.12-.64-1.68-1.06.2-.82.36-1.68.47-2.57.69.64,1.38,1.22,2.08,1.71-.17.72-.39,1.4-.7,1.99-.06-.03-.11-.05-.17-.08ZM90.19,144.72c-.51-.29-1.01-.65-1.5-1.06.26-.8.47-1.65.65-2.54.61.69,1.24,1.31,1.87,1.86-.21.67-.48,1.31-.81,1.85-.07-.04-.14-.07-.21-.11ZM85.7,145.64c-.46-.3-.91-.65-1.35-1.06,0-.02.02-.04.03-.06.29-.72.54-1.48.76-2.28.55.68,1.11,1.31,1.69,1.87-.25.62-.54,1.19-.89,1.67-.08-.05-.15-.09-.23-.14ZM81.49,146.4c-.08-.06-.16-.11-.25-.17-7.05-5.2-10.74-25.79-11.67-34.24-.43-3.91-.66-7.83-.74-11.75.31,3.75.75,7.48,1.37,11.19,1.4,8.47,5.4,26.02,12.25,33.48-.28.56-.6,1.07-.96,1.49ZM8.55,115.11c.06-.34.15-.7.28-1.09.11-.35.25-.7.41-1.05.19,0,.38,0,.58-.02.77-.05,1.55-.14,2.35-.25-.52.85-.97,1.72-1.33,2.57-.81.03-1.59,0-2.29-.15ZM6.89,108.9c.23,0,.45.02.69.02.72,0,1.46-.04,2.21-.1-.59.83-1.11,1.68-1.53,2.52-.79-.02-1.55-.12-2.23-.31.08-.31.19-.65.33-1,.15-.38.33-.76.53-1.14ZM6.75,36.04c.05.18.1.36.17.54-.21.03-.42.06-.62.11.11-.24.26-.45.46-.65ZM9.04,32.05c.08.41.2.84.34,1.26-.42.05-.81.12-1.19.22.1-.59.38-1.1.85-1.48ZM19.87,24.52c5.94,1.63,13.3,7.33,17.92,11.41,6.14,5.42,11.78,11.61,16.89,18.22-5.28-6.02-11.01-11.63-17.17-16.53-4.32-3.43-13.93-10.17-20.92-11.49-.2-.75-.32-1.46-.35-2.12.94-.05,2.14.1,3.63.51ZM86.01,3.74s0,0,.01,0c.26.48.49.99.69,1.55-.86.79-1.61,1.64-2.18,2.35-6.7,8.41-10.92,22.96-13.27,36.34.62-5.49,1.55-10.92,2.84-16.18,1.57-6.37,6.1-20.7,11.91-24.05ZM90.04,4.72c.08-.04.16-.08.24-.11.27.44.5.93.7,1.45-.71.56-1.37,1.17-1.93,1.74-.13-.74-.29-1.45-.48-2.12.48-.39.97-.71,1.47-.96ZM94.1,5.89c.05-.02.1-.04.16-.06.24.47.45.97.62,1.52-.56.4-1.09.82-1.56,1.23-.11-.71-.25-1.39-.43-2.03.41-.26.81-.49,1.22-.66ZM98.16,7.25s.04-.01.06-.02c.22.48.4,1.01.53,1.57-.62.39-1.2.82-1.72,1.22-.07-.73-.17-1.42-.31-2.08.48-.28.96-.52,1.43-.69ZM102.18,8.81c2.21,5.71-1.79,16.69-4.11,22.13-2.84,6.67-6.45,13.09-10.54,19.22,3.57-6.13,6.7-12.49,9.15-19.16,1.82-4.95,4.89-14.95,3.89-21.52.54-.29,1.08-.52,1.61-.68ZM131.7,71.68c-4.95-1.3-10.22-2.02-13.63-2.32-5.83-.51-11.74-.58-17.65-.28,5.1-.56,10.21-.85,15.28-.81,4.77.04,12.79.55,18.97,2.24-.74.33-1.41.61-1.97.82-.33.12-.66.24-.99.36ZM87.91,14.74c-5.97,8.39-10.64,20.37-13.84,31.37,1.36-6.1,3.1-12.09,5.27-17.81,1.53-4.02,4.74-11.28,8.51-16.54.05.98.07,1.98.06,2.98ZM92,12.23c.03.94,0,1.91-.04,2.89-.88,1.06-1.74,2.19-2.58,3.38.07-.99.12-2.01.14-3.03.8-1.14,1.63-2.24,2.47-3.24ZM95.5,13.66c-.2,5.18-1.62,11.01-2.65,14.58-1.85,6.42-4.38,12.71-7.36,18.81,2.53-6.06,4.64-12.29,6.15-18.7.7-2.99,1.61-7.74,1.9-12.44.64-.79,1.3-1.54,1.96-2.25ZM116.04,73.35c1.62.21,3.61.53,5.77.95-13.56,2.58-29.54,2.24-41.86.94-2.01-.21-4.11-.44-6.11-.84.1-.03.21-.06.31-.09.22-.05.43-.1.65-.14,13.54-2.06,27.7-2.57,41.24-.8ZM125.37,75.05c1.67.39,3.37.84,5.01,1.34-12.22,3.08-27.8,2.75-41.14,1.19,8.76.5,17.56.37,26.26-.76,2.53-.33,6.09-.9,9.87-1.77ZM72.03,81.9c4.62,10.4,10.1,26.43,11.96,40.81-2.24-4.51-4.04-8.85-5.1-11.72-3.73-10.1-6.03-20.63-7.92-31.19l1.06,2.1ZM81.14,101.82c3.41,9.31,6.19,19.43,6.92,28.33-.72-1.17-1.41-2.38-2.08-3.6-.75-8.89-2.96-18.25-4.84-24.72ZM90.25,27.05c-2.42,10.87-6.73,21.47-11.92,31.51,4.51-10.24,8.18-20.85,10.07-31.9.21-1.25.45-2.81.64-4.54.83-1.28,1.73-2.59,2.67-3.86-.35,3.33-.96,6.51-1.47,8.79ZM71,69.99c2.72-13.93,7.21-28.2,13.83-40.74.55-1.04,1.26-2.31,2.08-3.7-2.48,15.44-8.71,30.59-15.91,44.44ZM87.49,21.31c-4.88,7.65-8.98,17.08-12.05,25.83,1.78-6.34,3.97-12.54,6.63-18.41,1.2-2.65,3.25-6.72,5.71-10.63-.08,1.11-.17,2.19-.29,3.21ZM72.68,45.09c.97-5.83,2.29-11.57,4.01-17.09,1.64-5.26,5.71-15.98,10.52-21.06.18.77.33,1.58.43,2.43-7,8.37-11.93,22.67-14.97,35.72ZM29.64,44.87c12.45,6.45,24.03,15.47,34.13,25.32l-1.54-.79c-10.07-5.76-23.39-14.83-33.25-24.88.22.11.45.23.66.34ZM25.98,41.31c-.81-.91-1.59-1.83-2.32-2.76,3.03,1.4,5.91,2.99,8.22,4.38,5.83,3.49,11.42,7.57,16.72,12.04-5.48-4.12-11.22-7.86-17.18-11.02-1.41-.75-3.3-1.68-5.44-2.64ZM25.17,42.71c7.19,8.07,15.8,14.98,24.93,21.04-10.5-6.2-21.81-14.27-29.33-22.91,1.5.58,2.98,1.2,4.38,1.83,0,.01.02.02.03.03ZM62.48,78.87l-5.41,4.68c-7.59,5.96-18,12.97-28.57,17.84,2.92-2.66,5.76-4.97,7.93-6.63,7.83-5.96,16.49-11.21,25.37-15.6.23-.1.45-.19.68-.28ZM23.89,103.35c-.78.31-1.57.61-2.35.89,4.85-4.55,10.38-8.63,14.07-11.1.67-.45,1.35-.89,2.03-1.33-4.92,3.57-9.66,7.46-13.75,11.54ZM21.18,106.19c-.94,1.04-1.83,2.08-2.67,3.14-.84.28-1.68.54-2.51.77.84-1.04,1.77-2.08,2.75-3.1.8-.25,1.62-.52,2.43-.81ZM24.95,104.75c9.92-4.08,20.23-10.51,28.11-16.2-8.85,7.3-20.34,15.24-31.35,19.61,1.04-1.16,2.13-2.3,3.24-3.41ZM54.05,89.79c-10.18,9.49-24.17,20.17-36.9,24.17.68-1.02,1.44-2.06,2.26-3.09,11.83-4.07,25.14-13.29,34.64-21.09ZM33.71,42.13c-2.7-1.65-7.24-4.16-11.97-6.1-.76-1.06-1.46-2.12-2.1-3.18,4.96,1.9,10.25,5.13,13.97,7.68,5.89,4.03,11.48,8.71,16.71,13.77-5.26-4.5-10.81-8.62-16.61-12.17ZM19.19,35.06c-1.17-.41-2.33-.78-3.46-1.07-.5-.84-.96-1.72-1.35-2.6.02,0,.04,0,.06,0,.93.14,1.9.37,2.9.67.57,1.01,1.19,2.01,1.85,2.99ZM20.78,37.31c.7.95,1.4,1.85,2.08,2.68-1.3-.52-2.65-1.02-4.01-1.48-.66-.84-1.27-1.69-1.85-2.54,1.24.37,2.51.83,3.78,1.34ZM16.3,37.73c-1.11-.31-2.21-.58-3.28-.79-.41-.65-.79-1.31-1.13-1.97.1,0,.19,0,.29.02.81.07,1.65.2,2.52.39.5.79,1.04,1.58,1.6,2.35ZM17.93,39.84c1.91,2.36,3.89,4.46,5.4,5.96,7.28,7.23,15.78,13.34,24.73,18.64-12.76-6.67-26.48-15.75-33.74-25.62,1.18.28,2.4.63,3.61,1.02ZM21.77,48.94c7.27,6.39,15.57,11.72,24.26,16.29-13.17-6.04-27.12-14.36-34.45-23.82-.81-1.04-1.56-2.16-2.16-3.27.03,0,.05,0,.08,0,.81.02,1.66.1,2.54.24,2.86,4.17,7.03,8.18,9.73,10.56ZM17.92,105.42c-1.39.41-2.77.77-4.12,1.05,5.86-6.33,15.08-12.45,20.48-15.6,4.56-2.66,9.33-5.09,14.21-7.27-10.86,5.78-22.56,13.37-30.57,21.82ZM15.77,107.82c-.81.96-1.56,1.92-2.27,2.9-.72.16-1.43.3-2.13.41-.41.06-.83.12-1.26.16.53-.9,1.16-1.8,1.88-2.71,1.23-.18,2.49-.44,3.78-.75ZM16.73,111.71c-.68.96-1.31,1.93-1.88,2.9-.35.09-.69.18-1.03.25-.36.08-.75.15-1.13.21.46-.91,1.02-1.83,1.66-2.77.79-.17,1.59-.38,2.39-.6ZM55.31,90.78c-10.43,11.02-25.34,23.77-38.74,27.61-.63.18-1.31.34-1.99.45.33-.88.75-1.79,1.26-2.71,13.01-3.22,28.88-15.48,39.48-25.35ZM77,111.93c-.71-2.37-1.35-4.76-1.92-7.16.6,1.95,1.25,3.88,1.94,5.8,1.51,4.16,4.14,10.58,7.44,16.65.09,1.26.15,2.5.18,3.72-3.52-6.81-6.31-14.59-7.64-19.01ZM84.59,134.34c-.06,1.31-.16,2.58-.33,3.81-4.79-7.87-8.41-20-9.82-25.99-1.13-4.8-1.95-9.66-2.57-14.55.88,4.65,1.95,9.26,3.29,13.8,1.65,5.62,5.02,15.27,9.44,22.94ZM86.22,130.31c.65,1.09,1.33,2.16,2.02,3.18.02,1.19,0,2.35-.06,3.48-.66-.97-1.31-2.01-1.94-3.1.03-1.16.03-2.35-.02-3.56ZM89.87,135.76c.69.91,1.4,1.76,2.11,2.55-.03.43-.06.86-.1,1.27-.05.51-.13,1.06-.24,1.63-.67-.65-1.33-1.39-1.98-2.22.12-1.04.18-2.12.21-3.24ZM89.84,132.9c-.42-10.95-4.33-24.11-7.26-32.16-.11-.29-.22-.58-.33-.88,5.3,11.84,9.76,25.33,9.81,36.03-.75-.93-1.49-1.93-2.21-2.99ZM132.68,79.35c-10.09,2.46-22.77,2.17-34.66.68,5.86.39,11.74.44,17.61.04,4.17-.28,11.19-1.05,17.4-2.8.98.36,1.93.74,2.81,1.14-1.2.41-2.32.73-3.16.93ZM137.87,79.44c.68.39,1.3.79,1.86,1.21-2.55,1.21-5.77,2-7.63,2.33-9.92,1.78-22.1.84-33.58-1.24,5.45.65,10.93,1,16.42.97,5.44-.04,15.74-.59,22.93-3.27ZM128.66,74.22c1.01-.28,2.02-.58,3.01-.9,1.48.39,2.9.83,4.21,1.33-1.04.42-2,.75-2.75.98-1.46-.52-2.97-.99-4.47-1.41ZM125.68,73.46c-2.8-.67-5.41-1.15-7.39-1.45-5.51-.83-11.11-1.25-16.74-1.35,4.81-.2,9.61-.16,14.36.17,3.31.23,8.17.78,12.87,1.79-1.01.3-2.04.57-3.09.83ZM117.76,66.67c-6.15-.17-12.36.18-18.54.9,5.38-.96,10.8-1.62,16.19-1.91,6.06-.32,17.41-.19,23.69,2.44-.75.5-1.56.96-2.35,1.38-6.17-2-14.32-2.69-18.99-2.82ZM140.59,67.01c-6.28-2.93-17.44-3.27-23.21-3.07-6.31.22-12.65.97-18.94,2.12,5.5-1.36,11.06-2.4,16.61-3.04,6.62-.76,19.64-1.37,25.54,1.73.54.28,1,.57,1.39.85-.37.48-.85.95-1.4,1.4ZM95.46,29.54c-2.35,6.62-5.44,13.04-8.99,19.22,3.07-6.16,5.71-12.52,7.69-19.13,1.22-4.08,3.06-11.49,2.98-17.61.63-.58,1.26-1.11,1.89-1.57.64,5.94-1.93,14.46-3.57,19.09ZM95.49,11.36c-.63.59-1.25,1.21-1.87,1.87,0-.92-.03-1.82-.09-2.7.57-.58,1.14-1.1,1.71-1.56.13.76.21,1.56.25,2.39ZM91.85,9.97c-.8.82-1.58,1.7-2.34,2.65-.03-.94-.09-1.87-.18-2.77.7-.83,1.41-1.58,2.12-2.21.17.74.3,1.52.39,2.33ZM35.59,38.19c6.09,4.74,11.77,10.19,17.01,16.06-5.34-5.28-11.05-10.18-17.11-14.41-3.61-2.53-10.72-6.95-17.04-9.09-.03-.06-.07-.12-.1-.18-.44-.85-.85-1.75-1.18-2.63,6,1.33,13.6,6.5,18.41,10.25ZM16.34,30.12c-.91-.23-1.79-.41-2.63-.5-.22-.7-.38-1.37-.44-1.99.57-.07,1.25-.08,2.04,0,.28.82.63,1.65,1.03,2.49ZM12.52,31.23c.31.76.67,1.53,1.09,2.3-.86-.15-1.69-.25-2.48-.27-.25-.66-.43-1.29-.52-1.88.54-.11,1.17-.16,1.91-.14ZM10.03,34.94c.26.55.55,1.11.87,1.66-.79-.09-1.54-.14-2.27-.14-.16-.43-.29-.85-.38-1.25.49-.14,1.08-.24,1.77-.27ZM7.58,38.2c2.6,5.32,9.12,10.96,12.9,13.9,7.28,5.66,15.44,10.28,23.93,14.19-13.11-5.2-26.85-12.45-34.48-21.14-1.89-2.15-3.56-4.69-3.84-6.7.43-.11.93-.2,1.49-.25ZM6.03,107.2c-.77-.08-1.52-.22-2.17-.45.1-.28.21-.58.36-.9,3.8-8.08,20.03-16.41,28.08-19.87,4.96-2.13,10.12-4,15.37-5.6-14.51,5.52-30.83,13.77-39.56,23.97-.8.93-1.5,1.9-2.08,2.86ZM33.17,88.48c4.74-2.39,9.69-4.54,14.74-6.43-13.48,6.13-28.37,14.81-36.66,24.88-.68.1-1.35.19-2.01.25-.44.04-.89.07-1.36.08,5.15-7.51,18.33-15.27,25.29-18.78ZM11.62,117.8c.08-.32.19-.64.3-.97.15-.01.3-.03.45-.04.47-.06.94-.13,1.42-.21-.39.83-.71,1.65-.96,2.45-.5.02-.98,0-1.43-.06.04-.36.11-.75.22-1.17ZM13.99,120.83c.02-.08.04-.17.06-.25.38-.05.78-.1,1.2-.18,13.56-2.48,30.72-17.42,41.58-28.92-9.75,11.69-23.97,25.52-37.22,30.21-1.82.64-4.07,1.13-5.77.82-.02-.49.02-1.04.15-1.67ZM71.96,112.18c-.75-4.36-1.25-8.75-1.57-13.15.57,4.19,1.3,8.36,2.24,12.49,1.64,7.15,5.57,20.79,11.22,29-.05.24-.09.48-.15.71-.15.63-.34,1.34-.58,2.04-5.93-7.14-9.9-23.73-11.17-31.09ZM85.61,140.19c.21-1.09.36-2.24.46-3.43.61.94,1.23,1.83,1.87,2.66-.05.38-.1.76-.16,1.13-.1.57-.23,1.2-.4,1.85-.61-.66-1.2-1.4-1.78-2.22ZM93.67,137.75c.54-11.76-5.34-28.26-9.41-37.6-.34-.79-.71-1.57-1.07-2.35,7.05,13.17,13.32,28.88,12.8,40.5-.02.47-.06.97-.12,1.49-.74-.58-1.48-1.27-2.21-2.04ZM137.86,77.65c-.77-.39-1.58-.77-2.43-1.12.88-.3,1.73-.63,2.55-.98.72.35,1.38.72,1.98,1.11-.67.36-1.38.69-2.1.99ZM137.89,73.76c-1.14-.5-2.38-.95-3.66-1.36.95-.37,1.87-.76,2.75-1.19,1.15.41,2.18.87,3.08,1.39-.69.41-1.42.8-2.16,1.16ZM143.12,68.57c-.3-.25-.63-.49-.98-.71.38-.36.73-.73,1.03-1.12.58.78.69,1.55.46,2.3-.16-.16-.33-.32-.5-.47ZM139.48,60.01c2.85,1.28,3.65,2.72,3.27,4.13-5.56-3.96-19.26-3.59-25.85-2.96-10.29.98-20.57,3.39-30.5,6.66,8.9-3.56,18.17-6.35,27.48-8,6.56-1.16,19.52-2.56,25.6.17ZM106.1,10.5c1.94,5.82-2.76,16.62-5.42,21.94-3.32,6.64-7.43,12.95-12,18.95,4.03-6,7.62-12.28,10.53-18.91,2.42-5.52,6.88-17.52,4.66-23.85,1.01.11,1.83.67,2.23,1.88ZM100.24,7.95c-.1-.34-.2-.66-.33-.97.51.04.97.2,1.36.51-.35.13-.69.29-1.03.46ZM97.24,5.96c-.31.14-.63.3-.94.47-.11-.32-.23-.62-.37-.91.48.03.92.17,1.31.44ZM93.2,4.6c-.28.14-.56.3-.83.47-.12-.29-.26-.57-.4-.84.44.01.86.13,1.23.37ZM89.16,3.44c-.37.22-.74.46-1.1.73-.14-.35-.29-.68-.46-1,.55-.07,1.08,0,1.56.27ZM70.86,27.17c1.18-6.45,4.83-21.03,10.42-24.73,1.33-.88,2.76-1.06,3.85.02-1.81,1.17-3.44,3.09-4.44,4.52-7.66,10.93-10.94,31.06-11.85,46.53-.13-8.88.46-17.8,2.02-26.34ZM23.01,21.26c5.83,1.99,12.83,8.13,17.19,12.48,6.2,6.18,11.78,13.21,16.71,20.64-5.18-6.84-10.91-13.27-17.18-18.91-4.77-4.29-16.39-13.47-23.32-13.12.57-1.75,2.46-2.49,6.59-1.09ZM14.59,24.41c.04.49.12.99.23,1.5-.5-.02-.99,0-1.45.05.19-.67.57-1.21,1.22-1.55ZM11.66,28.17c.06.45.16.91.29,1.38-.46.02-.9.06-1.32.14.14-.63.47-1.15,1.03-1.52ZM7.87,48.42c-3.16-3.18-5.84-7.35-3.34-9.25,1.32,6.02,10.21,12.88,14.94,16.12,6.06,4.14,12.63,7.59,19.45,10.54-11.93-4.29-23.84-10.14-31.05-17.4ZM2.43,101.48c4.29-7.83,20.99-15.16,29.24-18.12,5.22-1.88,10.63-3.46,16.12-4.76-14.94,4.62-32.02,11.92-41.47,21.67-1.77,1.82-3.13,3.83-3.83,5.7-.99-.88-1.24-2.3-.05-4.49ZM3.58,108.42c.48.14,1.03.25,1.62.33-.25.54-.45,1.08-.61,1.6-.6-.45-.98-1.08-1.02-1.94ZM5.89,112.73c.5.11,1.05.18,1.66.22-.21.55-.37,1.08-.48,1.6-.63-.4-1.07-.99-1.18-1.83ZM8.54,116.81c.51.07,1.08.11,1.7.11-.16.55-.28,1.09-.36,1.61-.67-.35-1.16-.9-1.34-1.72ZM11.52,120.67c.29.02.59.03.91.03-.07.39-.12.77-.14,1.14-.35-.29-.61-.67-.76-1.16ZM22.2,124.22c-2.72,1.15-6.47,1.99-7.84.04,1.12.05,2.46-.1,4.05-.49,9.69-2.39,20.87-11.43,30.16-20.85-7.88,8.96-17.23,17.42-26.37,21.3ZM76.84,146.49c-6.72-5.62-9.14-26.4-9.55-34.89-.17-3.48-.18-6.96-.07-10.44.1,3.33.3,6.66.65,9.98.98,9.43,4.44,30.11,12.29,36.28-.91.35-2.01.17-3.31-.92ZM82.96,147.09c.24-.32.46-.66.67-1.02.35.31.71.59,1.07.84-.51.26-1.09.35-1.75.19ZM87.43,146.39c.24-.36.45-.75.65-1.17.4.31.8.59,1.2.83-.52.34-1.13.48-1.86.34ZM91.92,145.36c.23-.41.43-.85.61-1.32.44.31.89.58,1.34.81-.52.41-1.16.62-1.95.51ZM96.41,144c.23-.48.42-1.01.58-1.55.33.18.67.34,1,.48.21.09.41.16.61.22-.53.6-1.25.93-2.2.85ZM103.47,134.3c.21,2.64.04,6.69-2.36,7.4.19-.62.34-1.28.44-1.96,1.68-11.86-7.85-31.13-13.81-41.24-.12-.21-.26-.42-.38-.63,8.02,11.76,15.27,25.53,16.12,36.43ZM130.53,89.95c-9.39.52-20.44-1.55-30.93-4.64,4.54,1.04,9.13,1.85,13.76,2.39,7.18.83,22.94,1.81,29.29-3.09.4,3.88-8.48,5.14-12.12,5.35ZM142.76,81.25c-.08-.1-.17-.19-.26-.29.23-.16.45-.34.65-.51.07.41.03.81-.11,1.17-.09-.13-.19-.25-.29-.37ZM143.05,77.09c-.09-.09-.18-.18-.27-.27.25-.19.48-.4.7-.6.1.45.07.88-.07,1.28-.11-.14-.23-.28-.35-.41ZM143.18,72.86c-.09-.08-.18-.16-.27-.24.26-.23.51-.46.73-.7.13.47.11.93-.04,1.37-.14-.15-.28-.3-.42-.44Z"/>
    </g>
  </g>
</svg>