<?xml version="1.0" encoding="UTF-8" standalone="no"?>
<svg
   height="24"
   viewBox="0 -960 960 960"
   width="24"
   fill="#5f6368"
   version="1.1"
   id="svg1"
   sodipodi:docname="nature_24dp_5F6368_FILL0_wght400_GRAD0_opsz24.svg"
   xml:space="preserve"
   inkscape:version="1.3.2 (091e20e, 2023-11-25, custom)"
   xmlns:inkscape="http://www.inkscape.org/namespaces/inkscape"
   xmlns:sodipodi="http://sodipodi.sourceforge.net/DTD/sodipodi-0.dtd"
   xmlns="http://www.w3.org/2000/svg"
   xmlns:svg="http://www.w3.org/2000/svg"><defs
     id="defs1" /><sodipodi:namedview
     id="namedview1"
     pagecolor="#ffffff"
     bordercolor="#000000"
     borderopacity="0.25"
     inkscape:showpageshadow="2"
     inkscape:pageopacity="0.0"
     inkscape:pagecheckerboard="0"
     inkscape:deskcolor="#d1d1d1"
     showgrid="false"
     inkscape:zoom="23.458333"
     inkscape:cx="17.563055"
     inkscape:cy="14.024867"
     inkscape:window-width="2400"
     inkscape:window-height="1566"
     inkscape:window-x="2869"
     inkscape:window-y="483"
     inkscape:window-maximized="1"
     inkscape:current-layer="g3" /><path
     d="m 200,-80 v -80 h 240 v -160 h -80 q -83,0 -141.5,-58.5 Q 160,-437 160,-520 q 0,-60 33,-110.5 33,-50.5 89,-73.5 9,-75 65.5,-125.5 Q 404,-880 480,-880 q 76,0 132.5,50.5 56.5,50.5 65.5,125.5 56,23 89,73.5 33,50.5 33,110.5 0,83 -58.5,141.5 Q 683,-320 600,-320 h -80 v 160 h 240 v 80 z m 160,-320 h 240 q 50,0 85,-35 35,-35 35,-85 0,-36 -20.5,-66 -20.5,-30 -53.5,-44 l -42,-18 -6,-46 q -6,-45 -39.5,-75.5 Q 525,-800 480,-800 q -45,0 -78.5,30.5 Q 368,-739 362,-694 l -6,46 -42,18 q -33,14 -53.5,44 -20.5,30 -20.5,66 0,50 35,85 35,35 85,35 z m 120,-200 z"
     id="path1"
     inkscape:label="google"
     style="display:none" /><g
     id="g3"
     inkscape:label="ChestnutOak"
     style="display:none;fill:#65a30d;fill-opacity:1;stroke:#1a2e05;stroke-width:45.3543;stroke-dasharray:none;stroke-opacity:1"
     transform="matrix(-1.007776,0,0,0.99979645,987.95136,6.7189483)"><path
       style="fill:#65a30d;fill-opacity:1;stroke:#1a2e05;stroke-width:45.3543;stroke-linecap:round;stroke-linejoin:round;stroke-dasharray:none;stroke-opacity:1"
       d="m 779.36152,-492.17916 c -9.08232,-4.54116 -30.70496,38.30224 -47.02324,30.14308 -7.16104,-3.5804 34.12225,-77.82665 35.42993,-84.36517 9.30596,-46.52972 -14.93969,-115.18547 -23.37269,-161.56698 -9.46948,-52.08228 -60.91784,-12.17236 -62.69764,-19.29158 -8.54972,-34.19886 0.51164,-111.87649 -36.17172,-130.21817 -55.1694,-27.5847 -63.23568,34.96599 -97.6636,34.96599 -13.78456,0 -68.17244,-75.99609 -118.62488,-75.99609 -18.27512,0 -24.41628,52.14742 -28.93736,50.6404 -82.71469,-27.57156 -180.09713,-101.01424 -264.05353,-50.6404 -83.526026,50.11561 38.58316,118.73131 38.58316,142.2754 0,13.32483 -50.67223,34.8705 -36.17171,78.37205 2.29924,6.89766 66.15918,89.90425 55.4633,95.25219 -25.3305,12.66524 -64.32853,17.45852 -39.08259,55.3274 25.67765,38.51648 100.02838,42.10696 114.54376,71.13772 6.40621,12.8124 -36.26944,66.21708 -16.88014,85.6064 37.56606,37.56604 109.99626,-6.4938 147.09832,12.05724 5.3266,2.6632 -21.49048,50.1438 -6.02863,57.87472 34.32963,17.1648 91.0777,23.89812 128.30614,36.30772 23.54096,7.847 92.33492,31.34884 67.52056,31.34884 -6.47136,0 -47.24604,15.563 -37.37744,20.49728 72.2936,36.14684 150.77065,40.0266 224.26461,39.18596 -81.42412,-69.50648 54.63103,-293.03616 2.87539,-318.914 z"
       id="path3"
       sodipodi:nodetypes="sscssssscsssssssssssscs" /><path
       style="display:inline;fill:#65a30d;fill-opacity:1;stroke:#1a2e05;stroke-width:45.3543;stroke-linecap:round;stroke-linejoin:round;stroke-dasharray:none;stroke-opacity:1"
       d="m 829.538,-83.4388 c 0,0 -168.29501,-322.49085 -266.49084,-441.53878 -108.1572,-131.12461 -284.09821,-300.32115 -423.18319,-342.18168"
       id="path2"
       sodipodi:nodetypes="csc" /><path
       style="fill:none;fill-opacity:1;stroke:#1a2e05;stroke-width:45.3544;stroke-linecap:butt;stroke-linejoin:round;stroke-dasharray:none;stroke-opacity:1"
       d="m 433.10836,-809.94672 -13.6412,124.47603 -172.22027,1.70515"
       id="path6" /><path
       style="fill:none;fill-opacity:1;stroke:#1a2e05;stroke-width:45.3544;stroke-linecap:butt;stroke-linejoin:round;stroke-dasharray:none;stroke-opacity:1"
       d="M 520.07104,-579.75133 560.99468,-779.254"
       id="path7" /><path
       style="fill:none;fill-opacity:1;stroke:#1a2e05;stroke-width:45.3544;stroke-linecap:butt;stroke-linejoin:round;stroke-dasharray:none;stroke-opacity:1"
       d="m 526.89164,-579.75133 -245.54173,3.4103"
       id="path8" /><path
       style="fill:none;fill-opacity:1;stroke:#1a2e05;stroke-width:45.3544;stroke-linecap:butt;stroke-linejoin:round;stroke-dasharray:none;stroke-opacity:1"
       d="m 632.611,-705.9325 -30.53602,231.67896 -259.33963,-11.71449"
       id="path9"
       sodipodi:nodetypes="ccc" /><path
       style="fill:none;fill-opacity:1;stroke:#1a2e05;stroke-width:45.3544;stroke-linecap:butt;stroke-linejoin:round;stroke-dasharray:none;stroke-opacity:1"
       d="m 702.5222,-608.7389 -38.68354,234.46865 -225.65035,-8.92479"
       id="path10"
       sodipodi:nodetypes="ccc" /></g><g
     id="g5"
     inkscape:label="RedMaple"
     style="display:inline;fill:#e0010f;fill-opacity:1;stroke-width:45.3543;stroke-dasharray:none"
     transform="translate(21.340979,-48.985445)"><path
       style="display:inline;fill:#dcdcdc;fill-opacity:1;stroke:#ffffff;stroke-width:45.3543;stroke-linecap:round;stroke-linejoin:round;stroke-dasharray:none;stroke-opacity:1"
       d="M 405.61654,-337.5317 C 572.0817,-601.06786 569.27052,-488.85796 751.119,-743.44582"
       id="path4"
       sodipodi:nodetypes="cc" /><path
       style="fill:#dc0531;fill-opacity:1;stroke:none;stroke-width:45.3544;stroke-linecap:butt;stroke-linejoin:round;stroke-dasharray:none;stroke-opacity:1"
       d="m 225.67394,-102.67691 c 0,0 113.39254,0.8524 223.37479,-231.04796 0,0 -53.51071,129.86733 -72.50086,152.77608 0,0 23.51162,39.48746 151.92121,94.046464 128.40959,54.559005 150.71552,102.185095 150.71552,102.185095 0,0 5.4257,-103.692245 -107.91233,-218.236019 0,0 -19.06192,-20.78938 99.01983,-2.03272 118.0817,18.75666 117.2291,18.75666 117.2291,18.75666 0,0 -33.2505,-30.26643 -44.7602,-64.36945 0,0 43.9076,35.80817 187.9929,-95.06217 0,0 -66.5009,-43.90763 -176.9094,-36.66074 l 17.4778,-78.86323 c 0,0 -72.8952,52.43339 -130.01781,46.03907 -57.12256,-6.39431 -29.64047,-8.75631 54.76021,-102.80276 84.4007,-94.04646 65.1091,-120.57239 65.1091,-120.57239 l -106.10372,24.71734 c 0,0 19.29162,-144.08399 19.29162,-233.30756 0,0 -113.33808,85.60639 -179.05003,151.31834 l -39.78888,-95.85504 c 0,0 -62.69764,79.57777 -71.13771,220.64746 -8.44006,141.06968 -80.78349,-125.39528 -80.78349,-125.39528 l -47.62609,66.91767 c 0,0 -76.23542,-97.70647 -137.72733,-126.64384 0,0 -11.65623,119.77586 4.24512,151.87101 19.60189,39.56426 30.39282,58.57064 30.39282,58.57064 l -76.563459,2.41145 167.595609,163.37557 c 0,0 -116.95521,-31.34882 -191.710089,0.60287 -74.754869,31.95168 -65.109079,35.56885 -65.109079,35.56885 0,0 54.257569,-3.01431 171.212778,71.1377 116.95521,74.15202 157.34696,64.50623 157.34696,64.50623 0,0 -12.05724,38.58316 -119.96953,83.7978"
       id="path12"
       sodipodi:nodetypes="cccsccscccccsscccccscccscccscscc" /></g></svg>
