<?xml version="1.0" encoding="UTF-8" standalone="no"?>
<svg
   height="23.349571"
   viewBox="0 -960 904.78516 933.98285"
   width="22.619629"
   fill="#5f6368"
   version="1.1"
   id="svg1"
   sodipodi:docname="nature_24dp_5F6368_FILL0_wght400_GRAD0_opsz24.svg"
   xml:space="preserve"
   inkscape:version="1.3.2 (091e20e, 2023-11-25, custom)"
   inkscape:export-filename="red_maple.svg"
   inkscape:export-xdpi="96"
   inkscape:export-ydpi="96"
   xmlns:inkscape="http://www.inkscape.org/namespaces/inkscape"
   xmlns:sodipodi="http://sodipodi.sourceforge.net/DTD/sodipodi-0.dtd"
   xmlns="http://www.w3.org/2000/svg"
   xmlns:svg="http://www.w3.org/2000/svg"><defs
     id="defs1" /><sodipodi:namedview
     id="namedview1"
     pagecolor="#ffffff"
     bordercolor="#000000"
     borderopacity="0.25"
     inkscape:showpageshadow="2"
     inkscape:pageopacity="0.0"
     inkscape:pagecheckerboard="0"
     inkscape:deskcolor="#d1d1d1"
     showgrid="false"
     inkscape:zoom="14.481547"
     inkscape:cx="-1.3120145"
     inkscape:cy="15.744175"
     inkscape:window-width="2400"
     inkscape:window-height="1566"
     inkscape:window-x="2869"
     inkscape:window-y="483"
     inkscape:window-maximized="1"
     inkscape:current-layer="svg1" /><path
     style="display:inline;fill:#8fae28;fill-opacity:1;stroke:none;stroke-width:49.926;stroke-linecap:butt;stroke-linejoin:round;stroke-dasharray:none;stroke-opacity:1"
     d="m 67.18982,-30.480502 c 0,0 52.53967,-83.339478 148.61481,-191.282048 91.67427,-102.99807 89.39666,-101.47597 89.39666,-101.47597 0,0 -53.52411,25.36902 -89.96606,19.78783 l -36.44195,-5.58118 31.88671,-28.92061 c 0,0 -81.99438,-21.31003 -129.82443,-44.14206 0,0 39.85837,1.5221 37.58076,-12.17716 -2.27763,-13.69926 -58.64876,-29.9354 -58.64876,-29.9354 l 8.54109,-6.59588 L 0,-484.58531 l 107.61761,19.28044 -6.83286,-16.23615 c 0,0 71.74508,39.06827 95.0907,38.05348 23.34562,-1.0147 18.22098,-16.23615 18.22098,-16.23615 0,0 -34.73374,-53.78223 -76.86974,-86.76193 l 7.40228,-12.17706 -54.66293,-57.84131 -58.079339,-98.43159 121.283339,70.01838 -41.56659,-133.44088 27.90086,21.81733 -9.11048,-69.51097 13.66573,7.61067 c 0,0 -18.22098,-52.26013 21.6374,-93.8652 0,0 -4.55524,27.39841 14.80454,72.04787 19.35979,44.64936 19.35979,42.61986 19.35979,42.61986 l 7.40226,-8.62547 c 0,0 -1.1388,31.965 14.23514,53.78223 15.37395,21.81733 46.69125,-22.32463 46.69125,-22.32463 0,0 11.3881,19.28044 14.80453,54.79693 3.41644,35.51658 -11.38811,101.47597 28.47027,137.49996 39.85838,36.02388 39.85838,32.4723 39.85838,32.4723 0,0 17.65157,-28.41331 5.12464,-113.65304 l 11.95752,-5.07378 -25.62324,-170.47956 67.18983,121.26371 16.51276,-120.75642 34.16432,37.54608 15.94336,-54.28952 16.51275,5.58108 L 535.81047,-960 l 10.8187,129.38179 10.8187,-2.53689 -8.54108,61.9003 35.30313,-15.22135 c 0,0 -74.5921,115.17513 -56.94053,123.2932 17.65157,8.11808 129.25502,-52.26003 129.25502,-52.26003 l -88.82724,120.24892 21.06799,6.08858 c 0,0 -60.92637,6.08858 -78.00853,57.33392 -17.08217,51.24534 -0.56941,48.20104 -0.56941,48.20104 0,0 12.52693,25.87642 76.86973,-50.23053 64.34281,-76.10696 78.00854,-93.86531 78.00854,-93.86531 l 12.52692,61.39301 87.68842,-70.01838 9.11049,24.35423 130.39384,-58.85612 -70.60627,100.96858 15.37395,3.55169 -63.77341,57.84121 50.67708,7.61068 c 0,0 -137.22669,44.64946 -130.96324,62.4077 6.26345,17.75835 89.39665,31.965 89.39665,31.965 l -0.5694,10.14757 84.27199,34.50179 c 0,0 21.06801,14.71405 -45.55243,11.66976 -66.62043,-3.04429 -141.21254,-8.11807 -132.67145,1.0147 8.54108,9.13287 13.09632,11.16236 13.09632,11.16236 0,0 -136.08789,-31.4575 -165.69697,-10.65497 -29.60908,20.80264 92.81308,53.78223 92.81308,53.78223 l -2.84703,18.77304 158.2947,61.39301 c 0,0 8.54108,16.23615 -48.96886,15.72875 -57.50995,-0.5074 -113.88109,-14.71405 -113.88109,-14.71405 l 5.69406,22.83212 c 0,0 -98.50712,-35.51658 -121.85276,-38.05348 -23.34562,-2.53689 -11.95751,57.3339 -11.95751,57.3339 0,0 -107.04821,-82.19552 -126.97739,-121.26369 l -6.23975,-31.17528 35.73436,-80.97063 c 0,0 -69.60562,92.22008 -162.98809,188.11477 -92.12431,94.60268 -131.23956,156.780317 -145.4747,178.597637 -14.23513,21.817331 -31.92718,7.748721 -31.92718,7.748721 z"
     id="path13"
     sodipodi:nodetypes="cscscccscccccccccccccccccsccscssccccccccccccccscccscscccccccccscccsscscccsccscsccssc"
     inkscape:label="SilverMaple"
     inkscape:export-filename="\\wsl.localhost\Ubuntu-22.04\home\main\canopy\static\res\leaves\silver_maple.svg"
     inkscape:export-xdpi="96"
     inkscape:export-ydpi="96" /></svg>
