<?xml version="1.0" encoding="UTF-8" standalone="no"?>
<svg
   height="21.559849"
   viewBox="0 -960 944.06067 862.39395"
   width="23.601517"
   fill="#5f6368"
   version="1.1"
   id="svg1"
   sodipodi:docname="nature_24dp_5F6368_FILL0_wght400_GRAD0_opsz24.svg"
   xml:space="preserve"
   inkscape:version="1.3.2 (091e20e, 2023-11-25, custom)"
   inkscape:export-filename="red_maple.svg"
   inkscape:export-xdpi="96"
   inkscape:export-ydpi="96"
   xmlns:inkscape="http://www.inkscape.org/namespaces/inkscape"
   xmlns:sodipodi="http://sodipodi.sourceforge.net/DTD/sodipodi-0.dtd"
   xmlns="http://www.w3.org/2000/svg"
   xmlns:svg="http://www.w3.org/2000/svg"><defs
     id="defs1" /><sodipodi:namedview
     id="namedview1"
     pagecolor="#ffffff"
     bordercolor="#000000"
     borderopacity="0.25"
     inkscape:showpageshadow="2"
     inkscape:pageopacity="0.0"
     inkscape:pagecheckerboard="0"
     inkscape:deskcolor="#d1d1d1"
     showgrid="false"
     inkscape:zoom="23.458333"
     inkscape:cx="17.563055"
     inkscape:cy="14.024867"
     inkscape:window-width="2400"
     inkscape:window-height="1566"
     inkscape:window-x="2869"
     inkscape:window-y="483"
     inkscape:window-maximized="1"
     inkscape:current-layer="g3" /><g
     id="g5"
     inkscape:label="RedMaple"
     style="display:inline;fill:#e0010f;fill-opacity:1;stroke-width:45.3543;stroke-dasharray:none"
     transform="translate(13.306779,-112.8888)"><path
       style="fill:#2a7e1d;fill-opacity:1;stroke:none;stroke-width:45.3544;stroke-linecap:butt;stroke-linejoin:round;stroke-dasharray:none;stroke-opacity:1"
       d="m 225.67394,-102.67691 c 0,0 113.39254,0.8524 223.37479,-231.04796 0,0 -53.51071,129.86733 -72.50086,152.77608 0,0 23.51162,39.48746 151.92121,94.046464 128.40959,54.559005 150.71552,102.185095 150.71552,102.185095 0,0 5.4257,-103.692245 -107.91233,-218.236019 0,0 -19.06192,-20.78938 99.01983,-2.03272 118.0817,18.75666 117.2291,18.75666 117.2291,18.75666 0,0 -33.2505,-30.26643 -44.7602,-64.36945 0,0 43.9076,35.80817 187.9929,-95.06217 0,0 -66.5009,-43.90763 -176.9094,-36.66074 l 17.4778,-78.86323 c 0,0 -72.8952,52.43339 -130.01781,46.03907 -57.12256,-6.39431 -29.64047,-8.75631 54.76021,-102.80276 84.4007,-94.04646 65.1091,-120.57239 65.1091,-120.57239 l -106.10372,24.71734 c 0,0 19.29162,-144.08399 19.29162,-233.30756 0,0 -113.33808,85.60639 -179.05003,151.31834 l -39.78888,-95.85504 c 0,0 -62.69764,79.57777 -71.13771,220.64746 -8.44006,141.06968 -80.78349,-125.39528 -80.78349,-125.39528 l -47.62609,66.91767 c 0,0 -76.23542,-97.70647 -137.72733,-126.64384 0,0 -11.65623,119.77586 4.24512,151.87101 19.60189,39.56426 30.39282,58.57064 30.39282,58.57064 l -76.563459,2.41145 167.595609,163.37557 c 0,0 -116.95521,-31.34882 -191.710089,0.60287 -74.754869,31.95168 -65.109079,35.56885 -65.109079,35.56885 0,0 54.257569,-3.01431 171.212778,71.1377 116.95521,74.15202 157.34696,64.50623 157.34696,64.50623 0,0 -12.05724,38.58316 -119.96953,83.7978"
       id="path12"
       sodipodi:nodetypes="cccsccscccccsscccccscccscccscscc" /></g></svg>
