<?xml version="1.0" encoding="UTF-8"?>
<svg xmlns="http://www.w3.org/2000/svg" xmlns:xlink="http://www.w3.org/1999/xlink" viewBox="0 0 585.45 792.18">
  <defs>
    <style>
      .cls-1 {
        fill: #1d1d1b;
      }

      .cls-2 {
        fill: #845039;
      }

      .cls-3, .cls-4 {
        fill: #fff;
      }

      .cls-5 {
        fill: none;
      }

      .cls-6 {
        fill: #202020;
      }

      .cls-7 {
        fill: #7abc63;
      }

      .cls-8 {
        fill: url(#Dégradé_sans_nom_183);
      }

      .cls-9 {
        fill: #e83a3e;
        stroke: #a81916;
      }

      .cls-9, .cls-4 {
        stroke-miterlimit: 10;
        stroke-width: 4px;
      }

      .cls-4 {
        stroke: #1d1d1b;
      }

      .cls-10 {
        fill: #575756;
      }
    </style>
    <radialGradient id="Dégradé_sans_nom_183" data-name="Dégradé sans nom 183" cx="75.37" cy="73.11" fx="75.37" fy="112.93" r="100.95" gradientUnits="userSpaceOnUse">
      <stop offset=".35" stop-color="#f9b03d"/>
      <stop offset="1" stop-color="#d4155b"/>
    </radialGradient>
  </defs>
  <g id="Apple_Head" data-name="Apple Head">
    <path id="Ear" class="cls-6" d="M142.91,476.92l15.28,3.27s5.24,2.25,6.2,3.32,2.58,6.54,2.51,19.87.74,23.09-3.1,25.08c-3.84,1.99-18.96,6.28-18.96,6.28l-1.92-57.82Z"/>
    <path id="Ear-2" data-name="Ear" class="cls-6" d="M24.01,476.45l-15.28,3.27s-5.24,2.25-6.2,3.32S-.05,489.57.02,502.91c.07,13.33-.74,23.09,3.1,25.08,3.84,1.99,18.96,6.28,18.96,6.28l1.92-57.82Z"/>
    <path id="Stem" class="cls-2" d="M78.19,440.25c-.15-3.4-2.06-5.99-3.87-8.43-.83-1.12-1.81-2.45-3.5-3.83-2.61-2.13-4.56-2.47-5.44-4.67-.15-.39-.55-1.42-.26-2.59.34-1.38,1.43-2.19,2.66-3.1.84-.62,2-1.49,2.99-1.68,3.58-.7,7.84,6.75,9.23,9.2,2.51,4.39,7.89,13.8,4.67,17.3-1.55,1.69-5.07,1.97-6.2.69-.57-.64-.22-1.33-.29-2.88Z"/>
    <path class="cls-9" d="M146.99,465.73c5.2,15.91,5.3,43.27,4.03,64.61-1.94,21.87-5.25,37.71-22.32,42.78-15.91,5.2-43.27,5.3-64.61,4.03-21.87-1.94-37.71-5.25-42.78-22.32-5.2-15.91-5.3-43.27-4.03-64.61.15-1.66.3-3.28.47-4.86,2.05-19.34,6.08-33.23,21.85-37.92,15.91-5.2,43.27-5.3,64.61-4.03,21.87,1.94,37.71,5.25,42.78,22.32Z"/>
    <circle class="cls-6" cx="54.22" cy="491.02" r="14.81"/>
    <circle class="cls-6" cx="115.36" cy="491.02" r="14.81"/>
    <rect class="cls-6" x="55.25" y="528.6" width="57.8" height="18.98" rx="4.15" ry="4.15"/>
    <path class="cls-7" d="M128.43,405.5c-2.96-4.5-16.28-.08-17.81.44-3.34,1.14-8.29,2.88-12.99,7.59-4.52,4.53-6.29,9.27-7.15,11.68,0,0-1.61,4.46-1.46,10.51.02.62.05,1.02.29,1.46,1.94,3.44,12.53.66,15.03,0,3.66-.96,7.08-1.86,10.95-4.53,4.88-3.36,7.35-7.37,9.05-10.22,2.01-3.36,3.86-7.63,4.38-12.7.23-2.18.33-3.29-.29-4.23ZM108.95,426.81c-3.98,1.9-8.4,3.1-8.4,3.1l18.1-17.12s-5.72,12.12-9.7,14.01Z"/>
    <path class="cls-3" d="M45.68,488.96c.03.12.55,1.91,1.68,2.04,1.25.15,2.29-1.87,2.34-1.97.89-1.8-.11-2.75.73-3.94.89-1.25,2.33-.65,3.28-2.12.46-.7.74-1.78.29-2.26-.12-.14-.48-.42-1.75-.15-1.83.4-4.31,1.71-5.77,4.45-.49.92-1.25,2.35-.8,3.94Z"/>
    <path class="cls-3" d="M105.46,488.96c.03.12.55,1.91,1.68,2.04,1.25.15,2.29-1.87,2.34-1.97.89-1.8-.11-2.75.73-3.94.89-1.25,2.33-.65,3.28-2.12.46-.7.74-1.78.29-2.26-.12-.14-.48-.42-1.75-.15-1.83.4-4.31,1.71-5.77,4.45-.49.92-1.25,2.35-.8,3.94Z"/>
    <g>
      <rect class="cls-5" x="189.99" y="443.93" width="395.46" height="148.3"/>
      <path class="cls-6" d="M227.29,497.93l-6.41-17.86h-17.35l-6.19,17.86h-6.41l17.93-50.98h8.21l18.43,50.98h-8.21ZM214.83,462.57c-1.15-3.31-2.23-7.13-2.59-8.78h-.22c-.43,1.66-1.44,5.47-2.59,8.93l-4.25,12.17h13.97l-4.32-12.31Z"/>
      <path class="cls-6" d="M257.24,498.29c-2.59,0-5.62-.72-5.62-3.89,0-.22,0-.43.07-.65l.22-.22c1.15.14,2.3.14,3.46.14,9.15,0,12.39-7.06,12.39-15.19,0-4.54-.86-13.18-7.13-13.18-4.18,0-8.21,4.83-10.58,7.71v39.32h-7.06v-52.56h6.84v7.63h.22c3.46-4.1,7.56-8.79,13.46-8.79,8.93,0,11.59,10.15,11.59,17.35,0,11.45-5.4,22.32-17.86,22.32Z"/>
      <path class="cls-6" d="M298.64,498.29c-2.59,0-5.62-.72-5.62-3.89,0-.22,0-.43.07-.65l.22-.22c1.15.14,2.3.14,3.46.14,9.15,0,12.39-7.06,12.39-15.19,0-4.54-.86-13.18-7.13-13.18-4.18,0-8.21,4.83-10.58,7.71v39.32h-7.06v-52.56h6.84v7.63h.22c3.46-4.1,7.56-8.79,13.47-8.79,8.93,0,11.59,10.15,11.59,17.35,0,11.45-5.4,22.32-17.86,22.32Z"/>
      <path class="cls-6" d="M331.4,498.51c-3.89,0-5.54-3.1-5.54-6.91v-47.67h6.98v46.95c0,1.58.58,3.02,2.23,3.02.58,0,1.08-.14,1.51-.36l.29.29c-.14,2.66-2.38,4.68-5.47,4.68Z"/>
      <path class="cls-6" d="M373.31,475.03l-24.55,3.96c.43,8.28,5.54,14.76,14.69,14.76,2.88,0,5.76-.58,8.06-2.52l.36.29c.07.36.07.72.07,1.08,0,5.33-5.83,6.48-9.94,6.48-12.17,0-20.02-8.93-20.02-20.88,0-10.58,6.05-19.59,17.28-19.59,8.5,0,14.11,5.83,14.11,14.11,0,.79,0,1.44-.07,2.3ZM358.4,463.15c-6.55,0-9.14,4.97-9.65,11.38l17.86-3.02c0-4.82-2.95-8.35-8.21-8.35Z"/>
      <path class="cls-6" d="M389.07,499.08c-4.75,0-9.65-1.73-9.65-6.34,0-.36,0-.65.07-1.01l.43-.22c2.3,1.58,5.18,2.59,9,2.59s7.7-1.51,7.7-5.62c0-3.38-3.02-4.97-7.2-6.98-5.76-2.81-9.29-5.62-9.29-11.45,0-5.04,4.25-11.09,14.19-11.09,2.66,0,5.4.29,7.63.72l-.94,5.47c-1.94-.65-4.32-1.15-6.7-1.15-3.89,0-7.49,1.51-7.49,5.18,0,3.1,3.38,4.75,7.06,6.62,5.69,2.81,9.65,5.4,9.65,11.67,0,4.97-4.03,11.59-14.47,11.59Z"/>
      <path class="cls-6" d="M440.41,475.03l-24.55,3.96c.43,8.28,5.54,14.76,14.69,14.76,2.88,0,5.76-.58,8.06-2.52l.36.29c.07.36.07.72.07,1.08,0,5.33-5.83,6.48-9.94,6.48-12.17,0-20.02-8.93-20.02-20.88,0-10.58,6.05-19.59,17.28-19.59,8.5,0,14.11,5.83,14.11,14.11,0,.79,0,1.44-.07,2.3ZM425.5,463.15c-6.55,0-9.14,4.97-9.65,11.38l17.86-3.02c0-4.82-2.95-8.35-8.21-8.35Z"/>
      <path class="cls-6" d="M477.85,475.03l-24.55,3.96c.43,8.28,5.54,14.76,14.69,14.76,2.88,0,5.76-.58,8.06-2.52l.36.29c.07.36.07.72.07,1.08,0,5.33-5.83,6.48-9.94,6.48-12.17,0-20.02-8.93-20.02-20.88,0-10.58,6.05-19.59,17.28-19.59,8.5,0,14.11,5.83,14.11,14.11,0,.79,0,1.44-.07,2.3ZM462.94,463.15c-6.55,0-9.14,4.97-9.65,11.38l17.86-3.02c0-4.82-2.95-8.35-8.21-8.35Z"/>
      <path class="cls-6" d="M516.08,490.87c0,1.58.58,3.02,2.23,3.02.58,0,1.15-.14,1.58-.36l.29.29c-.14,2.66-2.3,4.68-5.4,4.68-4.18,0-5.54-3.38-5.54-6.12v-2.09h-.22c-3.53,4.18-7.63,8.79-13.54,8.79-8.78,0-11.52-10.08-11.52-17.28,0-13.61,6.77-22.61,21.75-22.61,1.01,0,2.23,0,3.31.07v-15.34h7.06v46.95ZM509.02,464.73c-1.51-.29-3.38-.58-5.33-.58-8.93,0-12.46,7.2-12.46,15.05,0,4.54.94,13.18,7.13,13.18,4.18,0,8.21-4.68,10.66-7.7v-19.95Z"/>
      <path class="cls-6" d="M220.85,560.38c-5.6,0-10.3-8.62-15.18-18.87-1.9.17-3.86.17-5.77.06v18.37h-3.75v-39.31c2.74-.17,5.49-.39,8.29-.39,6.44,0,13.66,2.18,13.66,10.02,0,5.6-4.14,9.13-9.02,10.64,5.43,10.64,9.91,16.41,13.16,16.41.34,0,.73-.11,1.01-.28l.22.22c.17,1.68-.9,3.14-2.63,3.14ZM203.66,523.02c-1.23,0-2.58.11-3.75.28v15.57c1.4.11,2.8.17,4.2.17,5.04,0,10.14-2.24,10.14-8.01,0-6.22-5.26-8.01-10.58-8.01Z"/>
      <path class="cls-6" d="M237.7,560.99c-9.18,0-12.38-9.07-12.38-16.8s4.26-14.78,12.66-14.78,12.32,7.45,12.32,15.12c0,8.18-3.7,16.46-12.6,16.46ZM237.65,531.98c-6.66,0-8.74,6.44-8.74,12.04s1.96,14.34,9.24,14.34c5.77,0,8.62-5.88,8.62-12.32,0-5.71-1.96-14.06-9.13-14.06Z"/>
      <path class="cls-6" d="M264.7,560.38c-2.24,0-4.59-.22-6.61-.45v-42h3.47v18.54h.06c2.63-3.19,5.77-6.94,10.36-6.94,6.72,0,8.9,7.67,8.9,13.22,0,10.53-5.1,17.64-16.18,17.64ZM270.97,532.88c-3.7,0-7,4.09-9.41,6.94v17.36c1.29.28,2.97.5,4.7.5,7.78,0,11.03-6.22,11.03-13.27,0-4.09-.84-11.54-6.33-11.54Z"/>
      <path class="cls-6" d="M299.19,560.99c-9.18,0-12.38-9.07-12.38-16.8s4.26-14.78,12.66-14.78,12.32,7.45,12.32,15.12c0,8.18-3.7,16.46-12.6,16.46ZM299.14,531.98c-6.66,0-8.74,6.44-8.74,12.04s1.96,14.34,9.24,14.34c5.77,0,8.62-5.88,8.62-12.32,0-5.71-1.96-14.06-9.13-14.06Z"/>
      <path class="cls-6" d="M323.05,552.87c0,3.47,1.9,5.32,5.43,5.32,1.62,0,3.14-.28,4.37-1.18l.22.11c.06.28.06.45.06.62,0,2.46-3.75,3.08-5.54,3.08-5.04,0-8.01-2.74-8.01-7.84v-19.88h-3.25l-.17-.28c.28-.9.62-1.34,2.13-2.41l4.42-3.19h.28v3.19h8.96v2.69h-8.9v19.77Z"/>
      <path class="cls-6" d="M340.63,522.8c-1.51,0-2.46-1.01-2.46-2.41s.95-2.46,2.46-2.46,2.35,1.01,2.35,2.46-.9,2.41-2.35,2.41ZM341.97,560.38c-2.46,0-3.19-2.3-3.19-4.37v-25.59h3.47v24.92c0,1.06.45,2.18,1.68,2.18.39,0,.78-.11,1.12-.28l.17.22c0,1.79-1.57,2.91-3.25,2.91Z"/>
      <path class="cls-6" d="M364.09,560.83c-8.96,0-14.39-7.28-14.39-15.79s5.21-15.06,14.34-15.06c1.9,0,3.81.17,5.66.45l-.56,3.3c-1.68-.56-3.64-.84-5.49-.84-7.56,0-10.36,4.65-10.36,11.65s3.64,13.33,11.65,13.33c1.9,0,3.92-.56,5.32-1.96l.28.17c.06.17.06.56.06.73,0,3.25-3.98,4.03-6.5,4.03Z"/>
      <path class="cls-6" d="M382.01,560.83c-2.46,0-6.83-.84-6.83-4.14,0-.17,0-.39.06-.56l.28-.17c1.68,1.29,3.7,2.13,6.94,2.13s6.72-1.29,6.72-5.21c0-3.08-2.63-4.54-6.16-6.22-4.87-2.35-7.28-4.7-7.28-8.74,0-3.47,3.02-7.95,10.02-7.95,1.85,0,3.86.22,5.49.5l-.56,3.08c-1.51-.5-3.19-.84-4.98-.84-3.02,0-6.66,1.12-6.66,4.82,0,2.91,2.91,4.37,5.82,5.88,4.87,2.46,7.67,4.37,7.67,9.07,0,3.58-3.19,8.34-10.53,8.34Z"/>
    </g>
    <path id="Ear-3" data-name="Ear" class="cls-1" d="M142.91,676.87l15.28,3.27s5.24,2.25,6.2,3.32,2.58,6.54,2.51,19.87.74,23.09-3.1,25.08c-3.84,1.99-18.96,6.28-18.96,6.28l-1.92-57.82Z"/>
    <path id="Ear-4" data-name="Ear" class="cls-1" d="M24.01,676.4l-15.28,3.27s-5.24,2.25-6.2,3.32S-.05,689.53.02,702.86c.07,13.33-.74,23.09,3.1,25.08,3.84,1.99,18.96,6.28,18.96,6.28l1.92-57.82Z"/>
    <path id="Stem-2" data-name="Stem" class="cls-1" d="M78.19,640.21c-.15-3.4-2.06-5.99-3.87-8.43-.83-1.12-1.81-2.45-3.5-3.83-2.61-2.13-4.56-2.47-5.44-4.67-.15-.39-.55-1.42-.26-2.59.34-1.38,1.43-2.19,2.66-3.1.84-.62,2-1.49,2.99-1.68,3.58-.7,7.84,6.75,9.23,9.2,2.51,4.39,7.89,13.8,4.67,17.3-1.55,1.69-5.07,1.97-6.2.69-.57-.64-.22-1.33-.29-2.88Z"/>
    <path class="cls-4" d="M146.99,665.69c5.2,15.91,5.3,43.27,4.03,64.61-1.94,21.87-5.25,37.71-22.32,42.78-15.91,5.2-43.27,5.3-64.61,4.03-21.87-1.94-37.71-5.25-42.78-22.32-5.2-15.91-5.3-43.27-4.03-64.61.15-1.66.3-3.28.47-4.86,2.05-19.34,6.08-33.23,21.85-37.92,15.91-5.2,43.27-5.3,64.61-4.03,21.87,1.94,37.71,5.25,42.78,22.32Z"/>
    <circle class="cls-1" cx="54.22" cy="690.97" r="14.81"/>
    <circle class="cls-1" cx="115.36" cy="690.97" r="14.81"/>
    <rect class="cls-1" x="55.25" y="728.56" width="57.8" height="18.98" rx="4.15" ry="4.15"/>
    <path class="cls-1" d="M128.43,605.46c-2.96-4.5-16.28-.08-17.81.44-3.34,1.14-8.29,2.88-12.99,7.59-4.52,4.53-6.29,9.27-7.15,11.68,0,0-1.61,4.46-1.46,10.51.02.62.05,1.02.29,1.46,1.94,3.44,12.53.66,15.03,0,3.66-.96,7.08-1.86,10.95-4.53,4.88-3.36,7.35-7.37,9.05-10.22,2.01-3.36,3.86-7.63,4.38-12.7.23-2.18.33-3.29-.29-4.23ZM108.95,626.77c-3.98,1.9-8.4,3.1-8.4,3.1l18.1-17.12s-5.72,12.12-9.7,14.01Z"/>
    <path class="cls-1" d="M45.68,688.92c.03.12.55,1.91,1.68,2.04,1.25.15,2.29-1.87,2.34-1.97.89-1.8-.11-2.75.73-3.94.89-1.25,2.33-.65,3.28-2.12.46-.7.74-1.78.29-2.26-.12-.14-.48-.42-1.75-.15-1.83.4-4.31,1.71-5.77,4.45-.49.92-1.25,2.35-.8,3.94Z"/>
    <path class="cls-1" d="M105.46,688.92c.03.12.55,1.91,1.68,2.04,1.25.15,2.29-1.87,2.34-1.97.89-1.8-.11-2.75.73-3.94.89-1.25,2.33-.65,3.28-2.12.46-.7.74-1.78.29-2.26-.12-.14-.48-.42-1.75-.15-1.83.4-4.31,1.71-5.77,4.45-.49.92-1.25,2.35-.8,3.94Z"/>
    <g>
      <rect class="cls-5" x="189.99" y="643.88" width="395.46" height="148.3"/>
      <path class="cls-1" d="M227.29,697.89l-6.41-17.86h-17.35l-6.19,17.86h-6.41l17.93-50.98h8.21l18.43,50.98h-8.21ZM214.83,662.53c-1.15-3.31-2.23-7.13-2.59-8.78h-.22c-.43,1.66-1.44,5.47-2.59,8.93l-4.25,12.17h13.97l-4.32-12.31Z"/>
      <path class="cls-1" d="M257.24,698.25c-2.59,0-5.62-.72-5.62-3.89,0-.22,0-.43.07-.65l.22-.22c1.15.14,2.3.14,3.46.14,9.15,0,12.39-7.06,12.39-15.19,0-4.54-.86-13.18-7.13-13.18-4.18,0-8.21,4.83-10.58,7.71v39.32h-7.06v-52.56h6.84v7.63h.22c3.46-4.1,7.56-8.79,13.46-8.79,8.93,0,11.59,10.15,11.59,17.35,0,11.45-5.4,22.32-17.86,22.32Z"/>
      <path class="cls-1" d="M298.64,698.25c-2.59,0-5.62-.72-5.62-3.89,0-.22,0-.43.07-.65l.22-.22c1.15.14,2.3.14,3.46.14,9.15,0,12.39-7.06,12.39-15.19,0-4.54-.86-13.18-7.13-13.18-4.18,0-8.21,4.83-10.58,7.71v39.32h-7.06v-52.56h6.84v7.63h.22c3.46-4.1,7.56-8.79,13.47-8.79,8.93,0,11.59,10.15,11.59,17.35,0,11.45-5.4,22.32-17.86,22.32Z"/>
      <path class="cls-1" d="M331.4,698.46c-3.89,0-5.54-3.1-5.54-6.91v-47.67h6.98v46.95c0,1.58.58,3.02,2.23,3.02.58,0,1.08-.14,1.51-.36l.29.29c-.14,2.66-2.38,4.68-5.47,4.68Z"/>
      <path class="cls-1" d="M373.31,674.99l-24.55,3.96c.43,8.28,5.54,14.76,14.69,14.76,2.88,0,5.76-.58,8.06-2.52l.36.29c.07.36.07.72.07,1.08,0,5.33-5.83,6.48-9.94,6.48-12.17,0-20.02-8.93-20.02-20.88,0-10.58,6.05-19.59,17.28-19.59,8.5,0,14.11,5.83,14.11,14.11,0,.79,0,1.44-.07,2.3ZM358.4,663.11c-6.55,0-9.14,4.97-9.65,11.38l17.86-3.02c0-4.82-2.95-8.35-8.21-8.35Z"/>
      <path class="cls-1" d="M389.07,699.04c-4.75,0-9.65-1.73-9.65-6.34,0-.36,0-.65.07-1.01l.43-.22c2.3,1.58,5.18,2.59,9,2.59s7.7-1.51,7.7-5.62c0-3.38-3.02-4.97-7.2-6.98-5.76-2.81-9.29-5.62-9.29-11.45,0-5.04,4.25-11.09,14.19-11.09,2.66,0,5.4.29,7.63.72l-.94,5.47c-1.94-.65-4.32-1.15-6.7-1.15-3.89,0-7.49,1.51-7.49,5.18,0,3.1,3.38,4.75,7.06,6.62,5.69,2.81,9.65,5.4,9.65,11.67,0,4.97-4.03,11.59-14.47,11.59Z"/>
      <path class="cls-1" d="M440.41,674.99l-24.55,3.96c.43,8.28,5.54,14.76,14.69,14.76,2.88,0,5.76-.58,8.06-2.52l.36.29c.07.36.07.72.07,1.08,0,5.33-5.83,6.48-9.94,6.48-12.17,0-20.02-8.93-20.02-20.88,0-10.58,6.05-19.59,17.28-19.59,8.5,0,14.11,5.83,14.11,14.11,0,.79,0,1.44-.07,2.3ZM425.5,663.11c-6.55,0-9.14,4.97-9.65,11.38l17.86-3.02c0-4.82-2.95-8.35-8.21-8.35Z"/>
      <path class="cls-1" d="M477.85,674.99l-24.55,3.96c.43,8.28,5.54,14.76,14.69,14.76,2.88,0,5.76-.58,8.06-2.52l.36.29c.07.36.07.72.07,1.08,0,5.33-5.83,6.48-9.94,6.48-12.17,0-20.02-8.93-20.02-20.88,0-10.58,6.05-19.59,17.28-19.59,8.5,0,14.11,5.83,14.11,14.11,0,.79,0,1.44-.07,2.3ZM462.94,663.11c-6.55,0-9.14,4.97-9.65,11.38l17.86-3.02c0-4.82-2.95-8.35-8.21-8.35Z"/>
      <path class="cls-1" d="M516.08,690.83c0,1.58.58,3.02,2.23,3.02.58,0,1.15-.14,1.58-.36l.29.29c-.14,2.66-2.3,4.68-5.4,4.68-4.18,0-5.54-3.38-5.54-6.12v-2.09h-.22c-3.53,4.18-7.63,8.79-13.54,8.79-8.78,0-11.52-10.08-11.52-17.28,0-13.61,6.77-22.61,21.75-22.61,1.01,0,2.23,0,3.31.07v-15.34h7.06v46.95ZM509.02,664.69c-1.51-.29-3.38-.58-5.33-.58-8.93,0-12.46,7.2-12.46,15.05,0,4.54.94,13.18,7.13,13.18,4.18,0,8.21-4.68,10.66-7.7v-19.95Z"/>
      <path class="cls-1" d="M220.85,760.33c-5.6,0-10.3-8.62-15.18-18.87-1.9.17-3.86.17-5.77.06v18.37h-3.75v-39.31c2.74-.17,5.49-.39,8.29-.39,6.44,0,13.66,2.18,13.66,10.02,0,5.6-4.14,9.13-9.02,10.64,5.43,10.64,9.91,16.41,13.16,16.41.34,0,.73-.11,1.01-.28l.22.22c.17,1.68-.9,3.14-2.63,3.14ZM203.66,722.98c-1.23,0-2.58.11-3.75.28v15.57c1.4.11,2.8.17,4.2.17,5.04,0,10.14-2.24,10.14-8.01,0-6.22-5.26-8.01-10.58-8.01Z"/>
      <path class="cls-1" d="M237.7,760.95c-9.18,0-12.38-9.07-12.38-16.8s4.26-14.78,12.66-14.78,12.32,7.45,12.32,15.12c0,8.18-3.7,16.46-12.6,16.46ZM237.65,731.94c-6.66,0-8.74,6.44-8.74,12.04s1.96,14.34,9.24,14.34c5.77,0,8.62-5.88,8.62-12.32,0-5.71-1.96-14.06-9.13-14.06Z"/>
      <path class="cls-1" d="M264.7,760.33c-2.24,0-4.59-.22-6.61-.45v-42h3.47v18.54h.06c2.63-3.19,5.77-6.94,10.36-6.94,6.72,0,8.9,7.67,8.9,13.22,0,10.53-5.1,17.64-16.18,17.64ZM270.97,732.84c-3.7,0-7,4.09-9.41,6.94v17.36c1.29.28,2.97.5,4.7.5,7.78,0,11.03-6.22,11.03-13.27,0-4.09-.84-11.54-6.33-11.54Z"/>
      <path class="cls-1" d="M299.19,760.95c-9.18,0-12.38-9.07-12.38-16.8s4.26-14.78,12.66-14.78,12.32,7.45,12.32,15.12c0,8.18-3.7,16.46-12.6,16.46ZM299.14,731.94c-6.66,0-8.74,6.44-8.74,12.04s1.96,14.34,9.24,14.34c5.77,0,8.62-5.88,8.62-12.32,0-5.71-1.96-14.06-9.13-14.06Z"/>
      <path class="cls-1" d="M323.05,752.83c0,3.47,1.9,5.32,5.43,5.32,1.62,0,3.14-.28,4.37-1.18l.22.11c.06.28.06.45.06.62,0,2.46-3.75,3.08-5.54,3.08-5.04,0-8.01-2.74-8.01-7.84v-19.88h-3.25l-.17-.28c.28-.9.62-1.34,2.13-2.41l4.42-3.19h.28v3.19h8.96v2.69h-8.9v19.77Z"/>
      <path class="cls-1" d="M340.63,722.76c-1.51,0-2.46-1.01-2.46-2.41s.95-2.46,2.46-2.46,2.35,1.01,2.35,2.46-.9,2.41-2.35,2.41ZM341.97,760.33c-2.46,0-3.19-2.3-3.19-4.37v-25.59h3.47v24.92c0,1.06.45,2.18,1.68,2.18.39,0,.78-.11,1.12-.28l.17.22c0,1.79-1.57,2.91-3.25,2.91Z"/>
      <path class="cls-1" d="M364.09,760.78c-8.96,0-14.39-7.28-14.39-15.79s5.21-15.06,14.34-15.06c1.9,0,3.81.17,5.66.45l-.56,3.3c-1.68-.56-3.64-.84-5.49-.84-7.56,0-10.36,4.65-10.36,11.65s3.64,13.33,11.65,13.33c1.9,0,3.92-.56,5.32-1.96l.28.17c.06.17.06.56.06.73,0,3.25-3.98,4.03-6.5,4.03Z"/>
      <path class="cls-1" d="M382.01,760.78c-2.46,0-6.83-.84-6.83-4.14,0-.17,0-.39.06-.56l.28-.17c1.68,1.29,3.7,2.13,6.94,2.13s6.72-1.29,6.72-5.21c0-3.08-2.63-4.54-6.16-6.22-4.87-2.35-7.28-4.7-7.28-8.74,0-3.47,3.02-7.95,10.02-7.95,1.85,0,3.86.22,5.49.5l-.56,3.08c-1.51-.5-3.19-.84-4.98-.84-3.02,0-6.66,1.12-6.66,4.82,0,2.91,2.91,4.37,5.82,5.88,4.87,2.46,7.67,4.37,7.67,9.07,0,3.58-3.19,8.34-10.53,8.34Z"/>
    </g>
  </g>
  <g id="EcoSim_Color" data-name="EcoSim Color">
    <g id="Calque_1_-_copie" data-name="Calque 1 - copie">
      <path class="cls-8" d="M151.28,70.52c1.12-1.84.58-3.74-.68-5.19,1.12-2.36-.28-4.64-2.32-5.97-5.71-3.71-19.53-2.5-26.12-1.46-14.82,2.34-29.44,7.66-42.94,14.23.07-.12.14-.24.21-.36,11.09-11.31,21.54-23.55,28.82-37.71,2.94-5.71,8.62-18.64,5.65-24.73-.99-2.02-2.58-2.55-4.31-2.31-1.07-1.54-2.52-1.9-4.05-1.62-1.14-1.47-2.58-1.77-4.06-1.44-1.2-1.4-2.63-1.64-4.07-1.25-1.31-1.37-2.79-1.51-4.24-.99-.09-.11-.18-.22-.28-.32-3.75-3.95-8.27,1.5-10.19,4.62-8.31,13.54-9.61,39.7-8.76,55.37l.74,8.91c-6.9-13.25-15.5-26.26-25.97-36.9-4.64-4.72-16.26-15.09-23.13-14.5-2.44.21-4.06,1.26-4.41,3.76-1.76.53-2.86,1.66-3.04,3.73-1.67.64-2.67,1.83-2.73,3.86-1.58.74-2.47,1.98-2.41,3.98-1.23.7-1.97,1.7-2.09,3.14-1.87.95-2.84,2.4-2.44,4.67,1.07,6.13,10.95,12.85,16.07,15.91,13.48,8.05,29.1,12.85,44.46,16.15-.99.08-1.98.16-2.96.33-16.82,2.94-41.84,9.89-54.66,21.6-4.51,4.12-6.76,9.43-2.84,11.73-.25,1.9.39,3.5,2.25,4.42-.11,1.89.66,3.43,2.6,4.21.04,1.88.93,3.35,2.95,3.98.16,1.65.97,2.93,2.61,3.53.64,2.76,3.26,4.18,8.72,2.48,14.95-4.67,32.57-25.9,41.25-38.72l3.18-5,1.81-2.49c-1.35,10.08-2.19,20.29-1.76,30.47.4,9.57,2.63,30.76,10.28,37.17,2.24,1.88,4.22,1.76,5.78.58,1.82.85,3.37.46,4.59-.62,1.91.75,3.45.24,4.6-.96,1.99.65,3.52.02,4.61-1.3,2.26.6,3.85-.34,4.85-2.03,3.04.06,4.49-2.86,4.75-6.23.95-11.94-9.73-30.59-16.31-40.32-4.82-7.13-10.43-13.66-16.05-20.14.29.11.58.23.87.34,12.4,5.73,25.37,10.5,38.86,12.9,7.56,1.35,24.8,3.45,30.56-2.23,1.32-1.3,1.46-2.94.92-4.47,1.01-1.31,1.01-2.82.43-4.21.98-1.38.92-2.91.26-4.28.96-1.45.82-2.99.09-4.34ZM148.07,71.61c-.8-.5-1.7-.95-2.69-1.36.71-.41,1.37-.84,1.98-1.29.85.52,1.49,1.02,1.95,1.52-.34.39-.76.77-1.23,1.13ZM149.22,74.72c-.34.35-.75.69-1.21,1.02-.51-.37-1.08-.71-1.69-1.05.63-.33,1.22-.68,1.77-1.05.46.37.83.73,1.12,1.08ZM148.98,78.91c-.33.32-.73.62-1.17.9-.48-.39-1.01-.76-1.58-1.12.6-.28,1.18-.58,1.71-.91.43.39.77.77,1.04,1.13ZM148.56,83.02c-2.41,2.11-7.95,3.19-10.65,3.51-9.7,1.14-21.38-.42-32.4-3.04,5.03.88,10.1,1.5,15.21,1.77,6.47.35,19.85.4,26.89-3.41.39.41.71.8.95,1.17ZM105.98,141.7c-.3-.07-.61-.17-.95-.31-.38-.16-.76-.36-1.14-.58,2.01-11.8-6.13-31.12-11.38-41.4-.66-1.29-1.35-2.57-2.06-3.84,8.19,13,15.99,29.05,16.19,41.14.03,1.51-.1,3.48-.66,4.99ZM101.24,143.48c-.56-.27-1.12-.64-1.68-1.06.2-.82.36-1.68.47-2.57.69.64,1.38,1.22,2.08,1.71-.17.72-.39,1.4-.7,1.99-.06-.03-.11-.05-.17-.08ZM96.73,144.72c-.51-.29-1.01-.65-1.5-1.06.26-.8.47-1.65.65-2.54.61.69,1.24,1.31,1.87,1.86-.21.67-.48,1.31-.81,1.85-.07-.04-.14-.07-.21-.11ZM92.24,145.64c-.46-.3-.91-.65-1.35-1.06,0-.02.02-.04.03-.06.29-.72.54-1.48.76-2.28.55.68,1.11,1.31,1.69,1.87-.25.62-.54,1.19-.89,1.67-.08-.05-.15-.09-.23-.14ZM88.02,146.4c-.08-.06-.16-.11-.25-.17-7.05-5.2-10.74-25.79-11.67-34.24-.43-3.91-.66-7.83-.74-11.75.31,3.75.75,7.48,1.37,11.19,1.4,8.47,5.4,26.02,12.25,33.48-.28.56-.6,1.07-.96,1.49ZM15.09,115.11c.06-.34.15-.7.28-1.09.11-.35.25-.7.41-1.05.19,0,.38,0,.58-.02.77-.05,1.55-.14,2.35-.25-.52.85-.97,1.72-1.33,2.57-.81.03-1.59,0-2.29-.15ZM13.43,108.9c.23,0,.45.02.69.02.72,0,1.46-.04,2.21-.1-.59.83-1.11,1.68-1.53,2.52-.79-.02-1.55-.12-2.23-.31.08-.31.19-.65.33-1,.15-.38.33-.76.53-1.14ZM13.28,36.04c.05.18.1.36.17.54-.21.03-.42.06-.62.11.11-.24.26-.45.46-.65ZM15.58,32.05c.08.41.2.84.34,1.26-.42.05-.81.12-1.19.22.1-.59.38-1.1.85-1.48ZM26.4,24.52c5.94,1.63,13.3,7.33,17.92,11.41,6.14,5.42,11.78,11.61,16.89,18.22-5.28-6.02-11.01-11.63-17.17-16.53-4.32-3.43-13.93-10.17-20.92-11.49-.2-.75-.32-1.46-.35-2.12.94-.05,2.14.1,3.63.51ZM92.55,3.74s0,0,.01,0c.26.48.49.99.69,1.55-.86.79-1.61,1.64-2.18,2.35-6.7,8.41-10.92,22.96-13.27,36.34.62-5.49,1.55-10.92,2.84-16.18,1.57-6.37,6.1-20.7,11.91-24.05ZM96.58,4.72c.08-.04.16-.08.24-.11.27.44.5.93.7,1.45-.71.56-1.37,1.17-1.93,1.74-.13-.74-.29-1.45-.48-2.12.48-.39.97-.71,1.47-.96ZM100.63,5.89c.05-.02.1-.04.16-.06.24.47.45.97.62,1.52-.56.4-1.09.82-1.56,1.23-.11-.71-.25-1.39-.43-2.03.41-.26.81-.49,1.22-.66ZM104.69,7.25s.04-.01.06-.02c.22.48.4,1.01.53,1.57-.62.39-1.2.82-1.72,1.22-.07-.73-.17-1.42-.31-2.08.48-.28.96-.52,1.43-.69ZM108.71,8.81c2.21,5.71-1.79,16.69-4.11,22.13-2.84,6.67-6.45,13.09-10.54,19.22,3.57-6.13,6.7-12.49,9.15-19.16,1.82-4.95,4.89-14.95,3.89-21.52.54-.29,1.08-.52,1.61-.68ZM138.23,71.68c-4.95-1.3-10.22-2.02-13.63-2.32-5.83-.51-11.74-.58-17.65-.28,5.1-.56,10.21-.85,15.28-.81,4.77.04,12.79.55,18.97,2.24-.74.33-1.41.61-1.97.82-.33.12-.66.24-.99.36ZM94.45,14.74c-5.97,8.39-10.64,20.37-13.84,31.37,1.36-6.1,3.1-12.09,5.27-17.81,1.53-4.02,4.74-11.28,8.51-16.54.05.98.07,1.98.06,2.98ZM98.53,12.23c.03.94,0,1.91-.04,2.89-.88,1.06-1.74,2.19-2.58,3.38.07-.99.12-2.01.14-3.03.8-1.14,1.63-2.24,2.47-3.24ZM102.03,13.66c-.2,5.18-1.62,11.01-2.65,14.58-1.85,6.42-4.38,12.71-7.36,18.81,2.53-6.06,4.64-12.29,6.15-18.7.7-2.99,1.61-7.74,1.9-12.44.64-.79,1.3-1.54,1.96-2.25ZM122.58,73.35c1.62.21,3.61.53,5.77.95-13.56,2.58-29.54,2.24-41.86.94-2.01-.21-4.11-.44-6.11-.84.1-.03.21-.06.31-.09.22-.05.43-.1.65-.14,13.54-2.06,27.7-2.57,41.24-.8ZM131.91,75.05c1.67.39,3.37.84,5.01,1.34-12.22,3.08-27.8,2.75-41.14,1.19,8.76.5,17.56.37,26.26-.76,2.53-.33,6.09-.9,9.87-1.77ZM78.57,81.9c4.62,10.4,10.1,26.43,11.96,40.81-2.24-4.51-4.04-8.85-5.1-11.72-3.73-10.1-6.03-20.63-7.92-31.19l1.06,2.1ZM87.68,101.82c3.41,9.31,6.19,19.43,6.92,28.33-.72-1.17-1.41-2.38-2.08-3.6-.75-8.89-2.96-18.25-4.84-24.72ZM96.78,27.05c-2.42,10.87-6.73,21.47-11.92,31.51,4.51-10.24,8.18-20.85,10.07-31.9.21-1.25.45-2.81.64-4.54.83-1.28,1.73-2.59,2.67-3.86-.35,3.33-.96,6.51-1.47,8.79ZM77.54,69.99c2.72-13.93,7.21-28.2,13.83-40.74.55-1.04,1.26-2.31,2.08-3.7-2.48,15.44-8.71,30.59-15.91,44.44ZM94.03,21.31c-4.88,7.65-8.98,17.08-12.05,25.83,1.78-6.34,3.97-12.54,6.63-18.41,1.2-2.65,3.25-6.72,5.71-10.63-.08,1.11-.17,2.19-.29,3.21ZM79.21,45.09c.97-5.83,2.29-11.57,4.01-17.09,1.64-5.26,5.71-15.98,10.52-21.06.18.77.33,1.58.43,2.43-7,8.37-11.93,22.67-14.97,35.72ZM36.18,44.87c12.45,6.45,24.03,15.47,34.13,25.32l-1.54-.79c-10.07-5.76-23.39-14.83-33.25-24.88.22.11.45.23.66.34ZM32.52,41.31c-.81-.91-1.59-1.83-2.32-2.76,3.03,1.4,5.91,2.99,8.22,4.38,5.83,3.49,11.42,7.57,16.72,12.04-5.48-4.12-11.22-7.86-17.18-11.02-1.41-.75-3.3-1.68-5.44-2.64ZM31.71,42.71c7.19,8.07,15.8,14.98,24.93,21.04-10.5-6.2-21.81-14.27-29.33-22.91,1.5.58,2.98,1.2,4.38,1.83,0,.01.02.02.03.03ZM69.01,78.87l-5.41,4.68c-7.59,5.96-18,12.97-28.57,17.84,2.92-2.66,5.76-4.97,7.93-6.63,7.83-5.96,16.49-11.21,25.37-15.6.23-.1.45-.19.68-.28ZM30.43,103.35c-.78.31-1.57.61-2.35.89,4.85-4.55,10.38-8.63,14.07-11.1.67-.45,1.35-.89,2.03-1.33-4.92,3.57-9.66,7.46-13.75,11.54ZM27.72,106.19c-.94,1.04-1.83,2.08-2.67,3.14-.84.28-1.68.54-2.51.77.84-1.04,1.77-2.08,2.75-3.1.8-.25,1.62-.52,2.43-.81ZM31.49,104.75c9.92-4.08,20.23-10.51,28.11-16.2-8.85,7.3-20.34,15.24-31.35,19.61,1.04-1.16,2.13-2.3,3.24-3.41ZM60.58,89.79c-10.18,9.49-24.17,20.17-36.9,24.17.68-1.02,1.44-2.06,2.26-3.09,11.83-4.07,25.14-13.29,34.64-21.09ZM40.25,42.13c-2.7-1.65-7.24-4.16-11.97-6.1-.76-1.06-1.46-2.12-2.1-3.18,4.96,1.9,10.25,5.13,13.97,7.68,5.89,4.03,11.48,8.71,16.71,13.77-5.26-4.5-10.81-8.62-16.61-12.17ZM25.73,35.06c-1.17-.41-2.33-.78-3.46-1.07-.5-.84-.96-1.72-1.35-2.6.02,0,.04,0,.06,0,.93.14,1.9.37,2.9.67.57,1.01,1.19,2.01,1.85,2.99ZM27.32,37.31c.7.95,1.4,1.85,2.08,2.68-1.3-.52-2.65-1.02-4.01-1.48-.66-.84-1.27-1.69-1.85-2.54,1.24.37,2.51.83,3.78,1.34ZM22.84,37.73c-1.11-.31-2.21-.58-3.28-.79-.41-.65-.79-1.31-1.13-1.97.1,0,.19,0,.29.02.81.07,1.65.2,2.52.39.5.79,1.04,1.58,1.6,2.35ZM24.47,39.84c1.91,2.36,3.89,4.46,5.4,5.96,7.28,7.23,15.78,13.34,24.73,18.64-12.76-6.67-26.48-15.75-33.74-25.62,1.18.28,2.4.63,3.61,1.02ZM28.3,48.94c7.27,6.39,15.57,11.72,24.26,16.29-13.17-6.04-27.12-14.36-34.45-23.82-.81-1.04-1.56-2.16-2.16-3.27.03,0,.05,0,.08,0,.81.02,1.66.1,2.54.24,2.86,4.17,7.03,8.18,9.73,10.56ZM24.46,105.42c-1.39.41-2.77.77-4.12,1.05,5.86-6.33,15.08-12.45,20.48-15.6,4.56-2.66,9.33-5.09,14.21-7.27-10.86,5.78-22.56,13.37-30.57,21.82ZM22.31,107.82c-.81.96-1.56,1.92-2.27,2.9-.72.16-1.43.3-2.13.41-.41.06-.83.12-1.26.16.53-.9,1.16-1.8,1.88-2.71,1.23-.18,2.49-.44,3.78-.75ZM23.27,111.71c-.68.96-1.31,1.93-1.88,2.9-.35.09-.69.18-1.03.25-.36.08-.75.15-1.13.21.46-.91,1.02-1.83,1.66-2.77.79-.17,1.59-.38,2.39-.6ZM61.84,90.78c-10.43,11.02-25.34,23.77-38.74,27.61-.63.18-1.31.34-1.99.45.33-.88.75-1.79,1.26-2.71,13.01-3.22,28.88-15.48,39.48-25.35ZM83.53,111.93c-.71-2.37-1.35-4.76-1.92-7.16.6,1.95,1.25,3.88,1.94,5.8,1.51,4.16,4.14,10.58,7.44,16.65.09,1.26.15,2.5.18,3.72-3.52-6.81-6.31-14.59-7.64-19.01ZM91.13,134.34c-.06,1.31-.16,2.58-.33,3.81-4.79-7.87-8.41-20-9.82-25.99-1.13-4.8-1.95-9.66-2.57-14.55.88,4.65,1.95,9.26,3.29,13.8,1.65,5.62,5.02,15.27,9.44,22.94ZM92.75,130.31c.65,1.09,1.33,2.16,2.02,3.18.02,1.19,0,2.35-.06,3.48-.66-.97-1.31-2.01-1.94-3.1.03-1.16.03-2.35-.02-3.56ZM96.41,135.76c.69.91,1.4,1.76,2.11,2.55-.03.43-.06.86-.1,1.27-.05.51-.13,1.06-.24,1.63-.67-.65-1.33-1.39-1.98-2.22.12-1.04.18-2.12.21-3.24ZM96.38,132.9c-.42-10.95-4.33-24.11-7.26-32.16-.11-.29-.22-.58-.33-.88,5.3,11.84,9.76,25.33,9.81,36.03-.75-.93-1.49-1.93-2.21-2.99ZM139.21,79.35c-10.09,2.46-22.77,2.17-34.66.68,5.86.39,11.74.44,17.61.04,4.17-.28,11.19-1.05,17.4-2.8.98.36,1.93.74,2.81,1.14-1.2.41-2.32.73-3.16.93ZM144.4,79.44c.68.39,1.3.79,1.86,1.21-2.55,1.21-5.77,2-7.63,2.33-9.92,1.78-22.1.84-33.58-1.24,5.45.65,10.93,1,16.42.97,5.44-.04,15.74-.59,22.93-3.27ZM135.19,74.22c1.01-.28,2.02-.58,3.01-.9,1.48.39,2.9.83,4.21,1.33-1.04.42-2,.75-2.75.98-1.46-.52-2.97-.99-4.47-1.41ZM132.22,73.46c-2.8-.67-5.41-1.15-7.39-1.45-5.51-.83-11.11-1.25-16.74-1.35,4.81-.2,9.61-.16,14.36.17,3.31.23,8.17.78,12.87,1.79-1.01.3-2.04.57-3.09.83ZM124.3,66.67c-6.15-.17-12.36.18-18.54.9,5.38-.96,10.8-1.62,16.19-1.91,6.06-.32,17.41-.19,23.69,2.44-.75.5-1.56.96-2.35,1.38-6.17-2-14.32-2.69-18.99-2.82ZM147.12,67.01c-6.28-2.93-17.44-3.27-23.21-3.07-6.31.22-12.65.97-18.94,2.12,5.5-1.36,11.06-2.4,16.61-3.04,6.62-.76,19.64-1.37,25.54,1.73.54.28,1,.57,1.39.85-.37.48-.85.95-1.4,1.4ZM102,29.54c-2.35,6.62-5.44,13.04-8.99,19.22,3.07-6.16,5.71-12.52,7.69-19.13,1.22-4.08,3.06-11.49,2.98-17.61.63-.58,1.26-1.11,1.89-1.57.64,5.94-1.93,14.46-3.57,19.09ZM102.03,11.36c-.63.59-1.25,1.21-1.87,1.87,0-.92-.03-1.82-.09-2.7.57-.58,1.14-1.1,1.71-1.56.13.76.21,1.56.25,2.39ZM98.39,9.97c-.8.82-1.58,1.7-2.34,2.65-.03-.94-.09-1.87-.18-2.77.7-.83,1.41-1.58,2.12-2.21.17.74.3,1.52.39,2.33ZM42.13,38.19c6.09,4.74,11.77,10.19,17.01,16.06-5.34-5.28-11.05-10.18-17.11-14.41-3.61-2.53-10.72-6.95-17.04-9.09-.03-.06-.07-.12-.1-.18-.44-.85-.85-1.75-1.18-2.63,6,1.33,13.6,6.5,18.41,10.25ZM22.87,30.12c-.91-.23-1.79-.41-2.63-.5-.22-.7-.38-1.37-.44-1.99.57-.07,1.25-.08,2.04,0,.28.82.63,1.65,1.03,2.49ZM19.06,31.23c.31.76.67,1.53,1.09,2.3-.86-.15-1.69-.25-2.48-.27-.25-.66-.43-1.29-.52-1.88.54-.11,1.17-.16,1.91-.14ZM16.57,34.94c.26.55.55,1.11.87,1.66-.79-.09-1.54-.14-2.27-.14-.16-.43-.29-.85-.38-1.25.49-.14,1.08-.24,1.77-.27ZM14.11,38.2c2.6,5.32,9.12,10.96,12.9,13.9,7.28,5.66,15.44,10.28,23.93,14.19-13.11-5.2-26.85-12.45-34.48-21.14-1.89-2.15-3.56-4.69-3.84-6.7.43-.11.93-.2,1.49-.25ZM12.57,107.2c-.77-.08-1.52-.22-2.17-.45.1-.28.21-.58.36-.9,3.8-8.08,20.03-16.41,28.08-19.87,4.96-2.13,10.12-4,15.37-5.6-14.51,5.52-30.83,13.77-39.56,23.97-.8.93-1.5,1.9-2.08,2.86ZM39.71,88.48c4.74-2.39,9.69-4.54,14.74-6.43-13.48,6.13-28.37,14.81-36.66,24.88-.68.1-1.35.19-2.01.25-.44.04-.89.07-1.36.08,5.15-7.51,18.33-15.27,25.29-18.78ZM18.16,117.8c.08-.32.19-.64.3-.97.15-.01.3-.03.45-.04.47-.06.94-.13,1.42-.21-.39.83-.71,1.65-.96,2.45-.5.02-.98,0-1.43-.06.04-.36.11-.75.22-1.17ZM20.53,120.83c.02-.08.04-.17.06-.25.38-.05.78-.1,1.2-.18,13.56-2.48,30.72-17.42,41.58-28.92-9.75,11.69-23.97,25.52-37.22,30.21-1.82.64-4.07,1.13-5.77.82-.02-.49.02-1.04.15-1.67ZM78.5,112.18c-.75-4.36-1.25-8.75-1.57-13.15.57,4.19,1.3,8.36,2.24,12.49,1.64,7.15,5.57,20.79,11.22,29-.05.24-.09.48-.15.71-.15.63-.34,1.34-.58,2.04-5.93-7.14-9.9-23.73-11.17-31.09ZM92.14,140.19c.21-1.09.36-2.24.46-3.43.61.94,1.23,1.83,1.87,2.66-.05.38-.1.76-.16,1.13-.1.57-.23,1.2-.4,1.85-.61-.66-1.2-1.4-1.78-2.22ZM100.2,137.75c.54-11.76-5.34-28.26-9.41-37.6-.34-.79-.71-1.57-1.07-2.35,7.05,13.17,13.32,28.88,12.8,40.5-.02.47-.06.97-.12,1.49-.74-.58-1.48-1.27-2.21-2.04ZM144.4,77.65c-.77-.39-1.58-.77-2.43-1.12.88-.3,1.73-.63,2.55-.98.72.35,1.38.72,1.98,1.11-.67.36-1.38.69-2.1.99ZM144.42,73.76c-1.14-.5-2.38-.95-3.66-1.36.95-.37,1.87-.76,2.75-1.19,1.15.41,2.18.87,3.08,1.39-.69.41-1.42.8-2.16,1.16ZM149.66,68.57c-.3-.25-.63-.49-.98-.71.38-.36.73-.73,1.03-1.12.58.78.69,1.55.46,2.3-.16-.16-.33-.32-.5-.47ZM146.02,60.01c2.85,1.28,3.65,2.72,3.27,4.13-5.56-3.96-19.26-3.59-25.85-2.96-10.29.98-20.57,3.39-30.5,6.66,8.9-3.56,18.17-6.35,27.48-8,6.56-1.16,19.52-2.56,25.6.17ZM112.63,10.5c1.94,5.82-2.76,16.62-5.42,21.94-3.32,6.64-7.43,12.95-12,18.95,4.03-6,7.62-12.28,10.53-18.91,2.42-5.52,6.88-17.52,4.66-23.85,1.01.11,1.83.67,2.23,1.88ZM106.77,7.95c-.1-.34-.2-.66-.33-.97.51.04.97.2,1.36.51-.35.13-.69.29-1.03.46ZM103.78,5.96c-.31.14-.63.3-.94.47-.11-.32-.23-.62-.37-.91.48.03.92.17,1.31.44ZM99.74,4.6c-.28.14-.56.3-.83.47-.12-.29-.26-.57-.4-.84.44.01.86.13,1.23.37ZM95.7,3.44c-.37.22-.74.46-1.1.73-.14-.35-.29-.68-.46-1,.55-.07,1.08,0,1.56.27ZM77.4,27.17c1.18-6.45,4.83-21.03,10.42-24.73,1.33-.88,2.76-1.06,3.85.02-1.81,1.17-3.44,3.09-4.44,4.52-7.66,10.93-10.94,31.06-11.85,46.53-.13-8.88.46-17.8,2.02-26.34ZM29.55,21.26c5.83,1.99,12.83,8.13,17.19,12.48,6.2,6.18,11.78,13.21,16.71,20.64-5.18-6.84-10.91-13.27-17.18-18.91-4.77-4.29-16.39-13.47-23.32-13.12.57-1.75,2.46-2.49,6.59-1.09ZM21.13,24.41c.04.49.12.99.23,1.5-.5-.02-.99,0-1.45.05.19-.67.57-1.21,1.22-1.55ZM18.2,28.17c.06.45.16.91.29,1.38-.46.02-.9.06-1.32.14.14-.63.47-1.15,1.03-1.52ZM14.4,48.42c-3.16-3.18-5.84-7.35-3.34-9.25,1.32,6.02,10.21,12.88,14.94,16.12,6.06,4.14,12.63,7.59,19.45,10.54-11.93-4.29-23.84-10.14-31.05-17.4ZM8.97,101.48c4.29-7.83,20.99-15.16,29.24-18.12,5.22-1.88,10.63-3.46,16.12-4.76-14.94,4.62-32.02,11.92-41.47,21.67-1.77,1.82-3.13,3.83-3.83,5.7-.99-.88-1.24-2.3-.05-4.49ZM10.12,108.42c.48.14,1.03.25,1.62.33-.25.54-.45,1.08-.61,1.6-.6-.45-.98-1.08-1.02-1.94ZM12.43,112.73c.5.11,1.05.18,1.66.22-.21.55-.37,1.08-.48,1.6-.63-.4-1.07-.99-1.18-1.83ZM15.08,116.81c.51.07,1.08.11,1.7.11-.16.55-.28,1.09-.36,1.61-.67-.35-1.16-.9-1.34-1.72ZM18.06,120.67c.29.02.59.03.91.03-.07.39-.12.77-.14,1.14-.35-.29-.61-.67-.76-1.16ZM28.74,124.22c-2.72,1.15-6.47,1.99-7.84.04,1.12.05,2.46-.1,4.05-.49,9.69-2.39,20.87-11.43,30.16-20.85-7.88,8.96-17.23,17.42-26.37,21.3ZM83.37,146.49c-6.72-5.62-9.14-26.4-9.55-34.89-.17-3.48-.18-6.96-.07-10.44.1,3.33.3,6.66.65,9.98.98,9.43,4.44,30.11,12.29,36.28-.91.35-2.01.17-3.31-.92ZM89.49,147.09c.24-.32.46-.66.67-1.02.35.31.71.59,1.07.84-.51.26-1.09.35-1.75.19ZM93.97,146.39c.24-.36.45-.75.65-1.17.4.31.8.59,1.2.83-.52.34-1.13.48-1.86.34ZM98.46,145.36c.23-.41.43-.85.61-1.32.44.31.89.58,1.34.81-.52.41-1.16.62-1.95.51ZM102.95,144c.23-.48.42-1.01.58-1.55.33.18.67.34,1,.48.21.09.41.16.61.22-.53.6-1.25.93-2.2.85ZM110,134.3c.21,2.64.04,6.69-2.36,7.4.19-.62.34-1.28.44-1.96,1.68-11.86-7.85-31.13-13.81-41.24-.12-.21-.26-.42-.38-.63,8.02,11.76,15.27,25.53,16.12,36.43ZM137.06,89.95c-9.39.52-20.44-1.55-30.93-4.64,4.54,1.04,9.13,1.85,13.76,2.39,7.18.83,22.94,1.81,29.29-3.09.4,3.88-8.48,5.14-12.12,5.35ZM149.29,81.25c-.08-.1-.17-.19-.26-.29.23-.16.45-.34.65-.51.07.41.03.81-.11,1.17-.09-.13-.19-.25-.29-.37ZM149.59,77.09c-.09-.09-.18-.18-.27-.27.25-.19.48-.4.7-.6.1.45.07.88-.07,1.28-.11-.14-.23-.28-.35-.41ZM149.71,72.86c-.09-.08-.18-.16-.27-.24.26-.23.51-.46.73-.7.13.47.11.93-.04,1.37-.14-.15-.28-.3-.42-.44Z"/>
    </g>
    <g id="Text">
      <g>
        <path class="cls-10" d="M179.55,34.62h46.56v4.22h-41.85v29.95h39.93v4.22h-39.93v31.97h42.81v4.51h-47.52V34.62Z"/>
        <path class="cls-10" d="M235.9,83.19c0-16.61,10.66-28.03,26.01-28.03,8.83,0,17.95,3.74,22.27,14.59l-4.42,1.54c-2.78-7.49-9.41-12.19-18.14-12.19-12.86,0-20.93,10.37-20.93,24.09s8.74,24,21.41,24c10.56,0,17.38-6.72,20.64-14.98l3.94,1.25c-4.22,11.71-13.73,17.66-24.86,17.66-15.36,0-25.92-11.42-25.92-27.93Z"/>
        <path class="cls-10" d="M294.17,83.19c0-16.51,10.75-28.03,26.21-28.03s26.11,11.52,26.11,28.03-10.75,27.93-26.11,27.93-26.21-11.52-26.21-27.93ZM320.38,107.19c12.67,0,21.31-9.89,21.31-24s-8.64-24.09-21.31-24.09-21.41,9.98-21.41,24.09,8.74,24,21.41,24Z"/>
        <path class="cls-10" d="M355.42,89.24l4.32-1.63c3.26,12.29,12.58,19.1,23.52,19.1,8.93,0,19.58-4.51,19.58-16.13,0-10.85-9.21-12.77-16.89-15.17l-7.01-2.21c-7.58-2.4-20.83-7.01-20.83-20.73s12.48-19.39,23.81-19.39,20.83,5.76,24.38,18.05l-4.13,1.73c-2.88-9.22-10.56-15.36-21.02-15.36-9.89,0-18.14,5.57-18.14,14.59,0,11.04,12.19,14.78,16.7,16.22l7.1,2.3c8.83,2.88,21.21,5.76,21.21,19.2s-12.19,21.31-24.96,21.31c-10.08,0-23.04-4.9-27.65-21.89Z"/>
        <path class="cls-10" d="M423.58,32.7c2.5,0,4.42,2.02,4.42,4.42,0,2.59-1.92,4.61-4.42,4.61s-4.51-2.02-4.51-4.61c0-2.4,1.92-4.42,4.51-4.42ZM421.28,56.7h4.42v52.8h-4.42v-52.8Z"/>
        <path class="cls-10" d="M443.93,56.7h4.22v10.85h.19c4.22-8.83,11.42-12.38,19.01-12.38,7.1,0,15.45,3.17,17.95,13.92h.19c4.99-10.46,12.09-13.92,19.58-13.92,8.83,0,18.91,4.8,18.91,21.31v33.02h-4.42v-31.1c0-15.07-8.16-19.29-15.36-19.29-11.62,0-18.05,11.14-18.05,20.25v30.14h-4.42v-31.1c0-15.07-8.16-19.29-15.36-19.29-11.62,0-18.05,11.14-18.05,20.25v30.14h-4.42v-52.8Z"/>
      </g>
    </g>
  </g>
  <g id="EcoSim_B_W" data-name="EcoSim B/W">
    <g id="Calque_1_-_copie_2" data-name="Calque 1 - copie 2">
      <path class="cls-1" d="M149.36,243.31c1.12-1.84.58-3.74-.68-5.19,1.12-2.36-.28-4.64-2.32-5.97-5.71-3.71-19.53-2.5-26.12-1.46-14.82,2.34-29.44,7.66-42.94,14.23.07-.12.14-.24.21-.36,11.09-11.31,21.54-23.55,28.82-37.71,2.94-5.71,8.62-18.64,5.65-24.73-.99-2.02-2.58-2.55-4.31-2.31-1.07-1.54-2.52-1.9-4.05-1.62-1.14-1.47-2.58-1.77-4.06-1.44-1.2-1.4-2.63-1.64-4.07-1.25-1.31-1.37-2.79-1.51-4.24-.99-.09-.11-.18-.22-.28-.32-3.75-3.95-8.27,1.5-10.19,4.62-8.31,13.54-9.61,39.7-8.76,55.37l.74,8.91c-6.9-13.25-15.5-26.26-25.97-36.9-4.64-4.72-16.26-15.09-23.13-14.5-2.44.21-4.06,1.26-4.41,3.76-1.76.53-2.86,1.66-3.04,3.73-1.67.64-2.67,1.83-2.73,3.86-1.58.74-2.47,1.98-2.41,3.98-1.23.7-1.97,1.7-2.09,3.14-1.87.95-2.84,2.4-2.44,4.67,1.07,6.13,10.95,12.85,16.07,15.91,13.48,8.05,29.1,12.85,44.46,16.15-.99.08-1.98.16-2.96.33-16.82,2.94-41.84,9.89-54.66,21.6-4.51,4.12-6.76,9.43-2.84,11.73-.25,1.9.39,3.5,2.25,4.42-.11,1.89.66,3.43,2.6,4.21.04,1.88.93,3.35,2.95,3.98.16,1.65.97,2.93,2.61,3.53.64,2.76,3.26,4.18,8.72,2.48,14.95-4.67,32.57-25.9,41.25-38.72l3.18-5,1.81-2.49c-1.35,10.08-2.19,20.29-1.76,30.47.4,9.57,2.63,30.76,10.28,37.17,2.24,1.88,4.22,1.76,5.78.58,1.82.85,3.37.46,4.59-.62,1.91.75,3.45.24,4.6-.96,1.99.65,3.52.02,4.61-1.3,2.26.6,3.85-.34,4.85-2.03,3.04.06,4.49-2.86,4.75-6.23.95-11.94-9.73-30.59-16.31-40.32-4.82-7.13-10.43-13.66-16.05-20.14.29.11.58.23.87.34,12.4,5.73,25.37,10.5,38.86,12.9,7.56,1.35,24.8,3.45,30.56-2.23,1.32-1.3,1.46-2.94.92-4.47,1.01-1.31,1.01-2.82.43-4.21.98-1.38.92-2.91.26-4.28.96-1.45.82-2.99.09-4.34ZM146.15,244.4c-.8-.5-1.7-.95-2.69-1.36.71-.41,1.37-.84,1.98-1.29.85.52,1.49,1.02,1.95,1.52-.34.39-.76.77-1.23,1.13ZM147.3,247.51c-.34.35-.75.69-1.21,1.02-.51-.37-1.08-.71-1.69-1.05.63-.33,1.22-.68,1.77-1.05.46.37.83.73,1.12,1.08ZM147.06,251.7c-.33.32-.73.62-1.17.9-.48-.39-1.01-.76-1.58-1.12.6-.28,1.18-.58,1.71-.91.43.39.77.77,1.04,1.13ZM146.65,255.81c-2.41,2.11-7.95,3.19-10.65,3.51-9.7,1.14-21.38-.42-32.4-3.04,5.03.88,10.1,1.5,15.21,1.77,6.47.35,19.85.4,26.89-3.41.39.41.71.8.95,1.17ZM104.06,314.49c-.3-.07-.61-.17-.95-.31-.38-.16-.76-.36-1.14-.58,2.01-11.8-6.13-31.12-11.38-41.4-.66-1.29-1.35-2.57-2.06-3.84,8.19,13,15.99,29.05,16.19,41.14.03,1.51-.1,3.48-.66,4.99ZM99.33,316.27c-.56-.27-1.12-.64-1.68-1.06.2-.82.36-1.68.47-2.57.69.64,1.38,1.22,2.08,1.71-.17.72-.39,1.4-.7,1.99-.06-.03-.11-.05-.17-.08ZM94.81,317.52c-.51-.29-1.01-.65-1.5-1.06.26-.8.47-1.65.65-2.54.61.69,1.24,1.31,1.87,1.86-.21.67-.48,1.31-.81,1.85-.07-.04-.14-.07-.21-.11ZM90.32,318.44c-.46-.3-.91-.65-1.35-1.06,0-.02.02-.04.03-.06.29-.72.54-1.48.76-2.28.55.68,1.11,1.31,1.69,1.87-.25.62-.54,1.19-.89,1.67-.08-.05-.15-.09-.23-.14ZM86.11,319.2c-.08-.06-.16-.11-.25-.17-7.05-5.2-10.74-25.79-11.67-34.24-.43-3.91-.66-7.83-.74-11.75.31,3.75.75,7.48,1.37,11.19,1.4,8.47,5.4,26.02,12.25,33.48-.28.56-.6,1.07-.96,1.49ZM13.17,287.91c.06-.34.15-.7.28-1.09.11-.35.25-.7.41-1.05.19,0,.38,0,.58-.02.77-.05,1.55-.14,2.35-.25-.52.85-.97,1.72-1.33,2.57-.81.03-1.59,0-2.29-.15ZM11.51,281.69c.23,0,.45.02.69.02.72,0,1.46-.04,2.21-.1-.59.83-1.11,1.68-1.53,2.52-.79-.02-1.55-.12-2.23-.31.08-.31.19-.65.33-1,.15-.38.33-.76.53-1.14ZM11.37,208.83c.05.18.1.36.17.54-.21.03-.42.06-.62.11.11-.24.26-.45.46-.65ZM13.66,204.85c.08.41.2.84.34,1.26-.42.05-.81.12-1.19.22.1-.59.38-1.1.85-1.48ZM24.49,197.31c5.94,1.63,13.3,7.33,17.92,11.41,6.14,5.42,11.78,11.61,16.89,18.22-5.28-6.02-11.01-11.63-17.17-16.53-4.32-3.43-13.93-10.17-20.92-11.49-.2-.75-.32-1.46-.35-2.12.94-.05,2.14.1,3.63.51ZM90.63,176.53s0,0,.01,0c.26.48.49.99.69,1.55-.86.79-1.61,1.64-2.18,2.35-6.7,8.41-10.92,22.96-13.27,36.34.62-5.49,1.55-10.92,2.84-16.18,1.57-6.37,6.1-20.7,11.91-24.05ZM94.66,177.51c.08-.04.16-.08.24-.11.27.44.5.93.7,1.45-.71.56-1.37,1.17-1.93,1.74-.13-.74-.29-1.45-.48-2.12.48-.39.97-.71,1.47-.96ZM98.72,178.68c.05-.02.1-.04.16-.06.24.47.45.97.62,1.52-.56.4-1.09.82-1.56,1.23-.11-.71-.25-1.39-.43-2.03.41-.26.81-.49,1.22-.66ZM102.78,180.04s.04-.01.06-.02c.22.48.4,1.01.53,1.57-.62.39-1.2.82-1.72,1.22-.07-.73-.17-1.42-.31-2.08.48-.28.96-.52,1.43-.69ZM106.8,181.6c2.21,5.71-1.79,16.69-4.11,22.13-2.84,6.67-6.45,13.09-10.54,19.22,3.57-6.13,6.7-12.49,9.15-19.16,1.82-4.95,4.89-14.95,3.89-21.52.54-.29,1.08-.52,1.61-.68ZM136.32,244.48c-4.95-1.3-10.22-2.02-13.63-2.32-5.83-.51-11.74-.58-17.65-.28,5.1-.56,10.21-.85,15.28-.81,4.77.04,12.79.55,18.97,2.24-.74.33-1.41.61-1.97.82-.33.12-.66.24-.99.36ZM92.53,187.54c-5.97,8.39-10.64,20.37-13.84,31.37,1.36-6.1,3.1-12.09,5.27-17.81,1.53-4.02,4.74-11.28,8.51-16.54.05.98.07,1.98.06,2.98ZM96.62,185.02c.03.94,0,1.91-.04,2.89-.88,1.06-1.74,2.19-2.58,3.38.07-.99.12-2.01.14-3.03.8-1.14,1.63-2.24,2.47-3.24ZM100.12,186.46c-.2,5.18-1.62,11.01-2.65,14.58-1.85,6.42-4.38,12.71-7.36,18.81,2.53-6.06,4.64-12.29,6.15-18.7.7-2.99,1.61-7.74,1.9-12.44.64-.79,1.3-1.54,1.96-2.25ZM120.66,246.14c1.62.21,3.61.53,5.77.95-13.56,2.58-29.54,2.24-41.86.94-2.01-.21-4.11-.44-6.11-.84.1-.03.21-.06.31-.09.22-.05.43-.1.65-.14,13.54-2.06,27.7-2.57,41.24-.8ZM129.99,247.85c1.67.39,3.37.84,5.01,1.34-12.22,3.08-27.8,2.75-41.14,1.19,8.76.5,17.56.37,26.26-.76,2.53-.33,6.09-.9,9.87-1.77ZM76.65,254.7c4.62,10.4,10.1,26.43,11.96,40.81-2.24-4.51-4.04-8.85-5.1-11.72-3.73-10.1-6.03-20.63-7.92-31.19l1.06,2.1ZM85.76,274.62c3.41,9.31,6.19,19.43,6.92,28.33-.72-1.17-1.41-2.38-2.08-3.6-.75-8.89-2.96-18.25-4.84-24.72ZM94.87,199.84c-2.42,10.87-6.73,21.47-11.92,31.51,4.51-10.24,8.18-20.85,10.07-31.9.21-1.25.45-2.81.64-4.54.83-1.28,1.73-2.59,2.67-3.86-.35,3.33-.96,6.51-1.47,8.79ZM75.62,242.79c2.72-13.93,7.21-28.2,13.83-40.74.55-1.04,1.26-2.31,2.08-3.7-2.48,15.44-8.71,30.59-15.91,44.44ZM92.11,194.1c-4.88,7.65-8.98,17.08-12.05,25.83,1.78-6.34,3.97-12.54,6.63-18.41,1.2-2.65,3.25-6.72,5.71-10.63-.08,1.11-.17,2.19-.29,3.21ZM77.3,217.88c.97-5.83,2.29-11.57,4.01-17.09,1.64-5.26,5.71-15.98,10.52-21.06.18.77.33,1.58.43,2.43-7,8.37-11.93,22.67-14.97,35.72ZM34.26,217.66c12.45,6.45,24.03,15.47,34.13,25.32l-1.54-.79c-10.07-5.76-23.39-14.83-33.25-24.88.22.11.45.23.66.34ZM30.6,214.11c-.81-.91-1.59-1.83-2.32-2.76,3.03,1.4,5.91,2.99,8.22,4.38,5.83,3.49,11.42,7.57,16.72,12.04-5.48-4.12-11.22-7.86-17.18-11.02-1.41-.75-3.3-1.68-5.44-2.64ZM29.79,215.51c7.19,8.07,15.8,14.98,24.93,21.04-10.5-6.2-21.81-14.27-29.33-22.91,1.5.58,2.98,1.2,4.38,1.83,0,.01.02.02.03.03ZM67.1,251.66l-5.41,4.68c-7.59,5.96-18,12.97-28.57,17.84,2.92-2.66,5.76-4.97,7.93-6.63,7.83-5.96,16.49-11.21,25.37-15.6.23-.1.45-.19.68-.28ZM28.51,276.15c-.78.31-1.57.61-2.35.89,4.85-4.55,10.38-8.63,14.07-11.1.67-.45,1.35-.89,2.03-1.33-4.92,3.57-9.66,7.46-13.75,11.54ZM25.8,278.99c-.94,1.04-1.83,2.08-2.67,3.14-.84.28-1.68.54-2.51.77.84-1.04,1.77-2.08,2.75-3.1.8-.25,1.62-.52,2.43-.81ZM29.57,277.55c9.92-4.08,20.23-10.51,28.11-16.2-8.85,7.3-20.34,15.24-31.35,19.61,1.04-1.16,2.13-2.3,3.24-3.41ZM58.67,262.58c-10.18,9.49-24.17,20.17-36.9,24.17.68-1.02,1.44-2.06,2.26-3.09,11.83-4.07,25.14-13.29,34.64-21.09ZM38.33,214.92c-2.7-1.65-7.24-4.16-11.97-6.1-.76-1.06-1.46-2.12-2.1-3.18,4.96,1.9,10.25,5.13,13.97,7.68,5.89,4.03,11.48,8.71,16.71,13.77-5.26-4.5-10.81-8.62-16.61-12.17ZM23.81,207.85c-1.17-.41-2.33-.78-3.46-1.07-.5-.84-.96-1.72-1.35-2.6.02,0,.04,0,.06,0,.93.14,1.9.37,2.9.67.57,1.01,1.19,2.01,1.85,2.99ZM25.4,210.11c.7.95,1.4,1.85,2.08,2.68-1.3-.52-2.65-1.02-4.01-1.48-.66-.84-1.27-1.69-1.85-2.54,1.24.37,2.51.83,3.78,1.34ZM20.92,210.52c-1.11-.31-2.21-.58-3.28-.79-.41-.65-.79-1.31-1.13-1.97.1,0,.19,0,.29.02.81.07,1.65.2,2.52.39.5.79,1.04,1.58,1.6,2.35ZM22.55,212.64c1.91,2.36,3.89,4.46,5.4,5.96,7.28,7.23,15.78,13.34,24.73,18.64-12.76-6.67-26.48-15.75-33.74-25.62,1.18.28,2.4.63,3.61,1.02ZM26.39,221.73c7.27,6.39,15.57,11.72,24.26,16.29-13.17-6.04-27.12-14.36-34.45-23.82-.81-1.04-1.56-2.16-2.16-3.27.03,0,.05,0,.08,0,.81.02,1.66.1,2.54.24,2.86,4.17,7.03,8.18,9.73,10.56ZM22.54,278.21c-1.39.41-2.77.77-4.12,1.05,5.86-6.33,15.08-12.45,20.48-15.6,4.56-2.66,9.33-5.09,14.21-7.27-10.86,5.78-22.56,13.37-30.57,21.82ZM20.39,280.61c-.81.96-1.56,1.92-2.27,2.9-.72.16-1.43.3-2.13.41-.41.06-.83.12-1.26.16.53-.9,1.16-1.8,1.88-2.71,1.23-.18,2.49-.44,3.78-.75ZM21.35,284.51c-.68.96-1.31,1.93-1.88,2.9-.35.09-.69.18-1.03.25-.36.08-.75.15-1.13.21.46-.91,1.02-1.83,1.66-2.77.79-.17,1.59-.38,2.39-.6ZM59.93,263.58c-10.43,11.02-25.34,23.77-38.74,27.61-.63.18-1.31.34-1.99.45.33-.88.75-1.79,1.26-2.71,13.01-3.22,28.88-15.48,39.48-25.35ZM81.62,284.73c-.71-2.37-1.35-4.76-1.92-7.16.6,1.95,1.25,3.88,1.94,5.8,1.51,4.16,4.14,10.58,7.44,16.65.09,1.26.15,2.5.18,3.72-3.52-6.81-6.31-14.59-7.64-19.01ZM89.21,307.14c-.06,1.31-.16,2.58-.33,3.81-4.79-7.87-8.41-20-9.82-25.99-1.13-4.8-1.95-9.66-2.57-14.55.88,4.65,1.95,9.26,3.29,13.8,1.65,5.62,5.02,15.27,9.44,22.94ZM90.84,303.1c.65,1.09,1.33,2.16,2.02,3.18.02,1.19,0,2.35-.06,3.48-.66-.97-1.31-2.01-1.94-3.1.03-1.16.03-2.35-.02-3.56ZM94.49,308.56c.69.91,1.4,1.76,2.11,2.55-.03.43-.06.86-.1,1.27-.05.51-.13,1.06-.24,1.63-.67-.65-1.33-1.39-1.98-2.22.12-1.04.18-2.12.21-3.24ZM94.46,305.69c-.42-10.95-4.33-24.11-7.26-32.16-.11-.29-.22-.58-.33-.88,5.3,11.84,9.76,25.33,9.81,36.03-.75-.93-1.49-1.93-2.21-2.99ZM137.3,252.14c-10.09,2.46-22.77,2.17-34.66.68,5.86.39,11.74.44,17.61.04,4.17-.28,11.19-1.05,17.4-2.8.98.36,1.93.74,2.81,1.14-1.2.41-2.32.73-3.16.93ZM142.49,252.24c.68.39,1.3.79,1.86,1.21-2.55,1.21-5.77,2-7.63,2.33-9.92,1.78-22.1.84-33.58-1.24,5.45.65,10.93,1,16.42.97,5.44-.04,15.74-.59,22.93-3.27ZM133.28,247.02c1.01-.28,2.02-.58,3.01-.9,1.48.39,2.9.83,4.21,1.33-1.04.42-2,.75-2.75.98-1.46-.52-2.97-.99-4.47-1.41ZM130.3,246.25c-2.8-.67-5.41-1.15-7.39-1.45-5.51-.83-11.11-1.25-16.74-1.35,4.81-.2,9.61-.16,14.36.17,3.31.23,8.17.78,12.87,1.79-1.01.3-2.04.57-3.09.83ZM122.38,239.46c-6.15-.17-12.36.18-18.54.9,5.38-.96,10.8-1.62,16.19-1.91,6.06-.32,17.41-.19,23.69,2.44-.75.5-1.56.96-2.35,1.38-6.17-2-14.32-2.69-18.99-2.82ZM145.21,239.8c-6.28-2.93-17.44-3.27-23.21-3.07-6.31.22-12.65.97-18.94,2.12,5.5-1.36,11.06-2.4,16.61-3.04,6.62-.76,19.64-1.37,25.54,1.73.54.28,1,.57,1.39.85-.37.48-.85.95-1.4,1.4ZM100.08,202.34c-2.35,6.62-5.44,13.04-8.99,19.22,3.07-6.16,5.71-12.52,7.69-19.13,1.22-4.08,3.06-11.49,2.98-17.61.63-.58,1.26-1.11,1.89-1.57.64,5.94-1.93,14.46-3.57,19.09ZM100.11,184.15c-.63.59-1.25,1.21-1.87,1.87,0-.92-.03-1.82-.09-2.7.57-.58,1.14-1.1,1.71-1.56.13.76.21,1.56.25,2.39ZM96.47,182.77c-.8.82-1.58,1.7-2.34,2.65-.03-.94-.09-1.87-.18-2.77.7-.83,1.41-1.58,2.12-2.21.17.74.3,1.52.39,2.33ZM40.21,210.99c6.09,4.74,11.77,10.19,17.01,16.06-5.34-5.28-11.05-10.18-17.11-14.41-3.61-2.53-10.72-6.95-17.04-9.09-.03-.06-.07-.12-.1-.18-.44-.85-.85-1.75-1.18-2.63,6,1.33,13.6,6.5,18.41,10.25ZM20.96,202.92c-.91-.23-1.79-.41-2.63-.5-.22-.7-.38-1.37-.44-1.99.57-.07,1.25-.08,2.04,0,.28.82.63,1.65,1.03,2.49ZM17.14,204.02c.31.76.67,1.53,1.09,2.3-.86-.15-1.69-.25-2.48-.27-.25-.66-.43-1.29-.52-1.88.54-.11,1.17-.16,1.91-.14ZM14.65,207.73c.26.55.55,1.11.87,1.66-.79-.09-1.54-.14-2.27-.14-.16-.43-.29-.85-.38-1.25.49-.14,1.08-.24,1.77-.27ZM12.2,210.99c2.6,5.32,9.12,10.96,12.9,13.9,7.28,5.66,15.44,10.28,23.93,14.19-13.11-5.2-26.85-12.45-34.48-21.14-1.89-2.15-3.56-4.69-3.84-6.7.43-.11.93-.2,1.49-.25ZM10.65,279.99c-.77-.08-1.52-.22-2.17-.45.1-.28.21-.58.36-.9,3.8-8.08,20.03-16.41,28.08-19.87,4.96-2.13,10.12-4,15.37-5.6-14.51,5.52-30.83,13.77-39.56,23.97-.8.93-1.5,1.9-2.08,2.86ZM37.79,261.28c4.74-2.39,9.69-4.54,14.74-6.43-13.48,6.13-28.37,14.81-36.66,24.88-.68.1-1.35.19-2.01.25-.44.04-.89.07-1.36.08,5.15-7.51,18.33-15.27,25.29-18.78ZM16.24,290.59c.08-.32.19-.64.3-.97.15-.01.3-.03.45-.04.47-.06.94-.13,1.42-.21-.39.83-.71,1.65-.96,2.45-.5.02-.98,0-1.43-.06.04-.36.11-.75.22-1.17ZM18.61,293.62c.02-.08.04-.17.06-.25.38-.05.78-.1,1.2-.18,13.56-2.48,30.72-17.42,41.58-28.92-9.75,11.69-23.97,25.52-37.22,30.21-1.82.64-4.07,1.13-5.77.82-.02-.49.02-1.04.15-1.67ZM76.58,284.97c-.75-4.36-1.25-8.75-1.57-13.15.57,4.19,1.3,8.36,2.24,12.49,1.64,7.15,5.57,20.79,11.22,29-.05.24-.09.48-.15.71-.15.63-.34,1.34-.58,2.04-5.93-7.14-9.9-23.73-11.17-31.09ZM90.23,312.99c.21-1.09.36-2.24.46-3.43.61.94,1.23,1.83,1.87,2.66-.05.38-.1.76-.16,1.13-.1.57-.23,1.2-.4,1.85-.61-.66-1.2-1.4-1.78-2.22ZM98.29,310.54c.54-11.76-5.34-28.26-9.41-37.6-.34-.79-.71-1.57-1.07-2.35,7.05,13.17,13.32,28.88,12.8,40.5-.02.47-.06.97-.12,1.49-.74-.58-1.48-1.27-2.21-2.04ZM142.48,250.44c-.77-.39-1.58-.77-2.43-1.12.88-.3,1.73-.63,2.55-.98.72.35,1.38.72,1.98,1.11-.67.36-1.38.69-2.1.99ZM142.51,246.56c-1.14-.5-2.38-.95-3.66-1.36.95-.37,1.87-.76,2.75-1.19,1.15.41,2.18.87,3.08,1.39-.69.41-1.42.8-2.16,1.16ZM147.74,241.36c-.3-.25-.63-.49-.98-.71.38-.36.73-.73,1.03-1.12.58.78.69,1.55.46,2.3-.16-.16-.33-.32-.5-.47ZM144.1,232.8c2.85,1.28,3.65,2.72,3.27,4.13-5.56-3.96-19.26-3.59-25.85-2.96-10.29.98-20.57,3.39-30.5,6.66,8.9-3.56,18.17-6.35,27.48-8,6.56-1.16,19.52-2.56,25.6.17ZM110.72,183.29c1.94,5.82-2.76,16.62-5.42,21.94-3.32,6.64-7.43,12.95-12,18.95,4.03-6,7.62-12.28,10.53-18.91,2.42-5.52,6.88-17.52,4.66-23.85,1.01.11,1.83.67,2.23,1.88ZM104.86,180.75c-.1-.34-.2-.66-.33-.97.51.04.97.2,1.36.51-.35.13-.69.29-1.03.46ZM101.86,178.75c-.31.14-.63.3-.94.47-.11-.32-.23-.62-.37-.91.48.03.92.17,1.31.44ZM97.82,177.4c-.28.14-.56.3-.83.47-.12-.29-.26-.57-.4-.84.44.01.86.13,1.23.37ZM93.78,176.23c-.37.22-.74.46-1.1.73-.14-.35-.29-.68-.46-1,.55-.07,1.08,0,1.56.27ZM75.48,199.97c1.18-6.45,4.83-21.03,10.42-24.73,1.33-.88,2.76-1.06,3.85.02-1.81,1.17-3.44,3.09-4.44,4.52-7.66,10.93-10.94,31.06-11.85,46.53-.13-8.88.46-17.8,2.02-26.34ZM27.63,194.05c5.83,1.99,12.83,8.13,17.19,12.48,6.2,6.18,11.78,13.21,16.71,20.64-5.18-6.84-10.91-13.27-17.18-18.91-4.77-4.29-16.39-13.47-23.32-13.12.57-1.75,2.46-2.49,6.59-1.09ZM19.21,197.2c.04.49.12.99.23,1.5-.5-.02-.99,0-1.45.05.19-.67.57-1.21,1.22-1.55ZM16.28,200.96c.06.45.16.91.29,1.38-.46.02-.9.06-1.32.14.14-.63.47-1.15,1.03-1.52ZM12.49,221.22c-3.16-3.18-5.84-7.35-3.34-9.25,1.32,6.02,10.21,12.88,14.94,16.12,6.06,4.14,12.63,7.59,19.45,10.54-11.93-4.29-23.84-10.14-31.05-17.4ZM7.05,274.27c4.29-7.83,20.99-15.16,29.24-18.12,5.22-1.88,10.63-3.46,16.12-4.76-14.94,4.62-32.02,11.92-41.47,21.67-1.77,1.82-3.13,3.83-3.83,5.7-.99-.88-1.24-2.3-.05-4.49ZM8.2,281.22c.48.14,1.03.25,1.62.33-.25.54-.45,1.08-.61,1.6-.6-.45-.98-1.08-1.02-1.94ZM10.51,285.52c.5.11,1.05.18,1.66.22-.21.55-.37,1.08-.48,1.6-.63-.4-1.07-.99-1.18-1.83ZM13.16,289.61c.51.07,1.08.11,1.7.11-.16.55-.28,1.09-.36,1.61-.67-.35-1.16-.9-1.34-1.72ZM16.14,293.46c.29.02.59.03.91.03-.07.39-.12.77-.14,1.14-.35-.29-.61-.67-.76-1.16ZM26.82,297.02c-2.72,1.15-6.47,1.99-7.84.04,1.12.05,2.46-.1,4.05-.49,9.69-2.39,20.87-11.43,30.16-20.85-7.88,8.96-17.23,17.42-26.37,21.3ZM81.46,319.29c-6.72-5.62-9.14-26.4-9.55-34.89-.17-3.48-.18-6.96-.07-10.44.1,3.33.3,6.66.65,9.98.98,9.43,4.44,30.11,12.29,36.28-.91.35-2.01.17-3.31-.92ZM87.58,319.89c.24-.32.46-.66.67-1.02.35.31.71.59,1.07.84-.51.26-1.09.35-1.75.19ZM92.05,319.18c.24-.36.45-.75.65-1.17.4.31.8.59,1.2.83-.52.34-1.13.48-1.86.34ZM96.54,318.15c.23-.41.43-.85.61-1.32.44.31.89.58,1.34.81-.52.41-1.16.62-1.95.51ZM101.03,316.79c.23-.48.42-1.01.58-1.55.33.18.67.34,1,.48.21.09.41.16.61.22-.53.6-1.25.93-2.2.85ZM108.09,307.1c.21,2.64.04,6.69-2.36,7.4.19-.62.34-1.28.44-1.96,1.68-11.86-7.85-31.13-13.81-41.24-.12-.21-.26-.42-.38-.63,8.02,11.76,15.27,25.53,16.12,36.43ZM135.15,262.75c-9.39.52-20.44-1.55-30.93-4.64,4.54,1.04,9.13,1.85,13.76,2.39,7.18.83,22.94,1.81,29.29-3.09.4,3.88-8.48,5.14-12.12,5.35ZM147.38,254.05c-.08-.1-.17-.19-.26-.29.23-.16.45-.34.65-.51.07.41.03.81-.11,1.17-.09-.13-.19-.25-.29-.37ZM147.67,249.89c-.09-.09-.18-.18-.27-.27.25-.19.48-.4.7-.6.1.45.07.88-.07,1.28-.11-.14-.23-.28-.35-.41ZM147.8,245.65c-.09-.08-.18-.16-.27-.24.26-.23.51-.46.73-.7.13.47.11.93-.04,1.37-.14-.15-.28-.3-.42-.44Z"/>
    </g>
    <g id="Text_-_copie" data-name="Text - copie">
      <g>
        <path class="cls-1" d="M177.63,207.42h46.56v4.22h-41.85v29.95h39.93v4.22h-39.93v31.97h42.81v4.51h-47.52v-74.87Z"/>
        <path class="cls-1" d="M233.99,255.99c0-16.61,10.66-28.03,26.01-28.03,8.83,0,17.95,3.74,22.27,14.59l-4.42,1.54c-2.78-7.49-9.41-12.19-18.14-12.19-12.86,0-20.93,10.37-20.93,24.09s8.74,24,21.41,24c10.56,0,17.37-6.72,20.64-14.98l3.94,1.25c-4.22,11.71-13.73,17.66-24.86,17.66-15.36,0-25.92-11.42-25.92-27.93Z"/>
        <path class="cls-1" d="M292.26,255.99c0-16.51,10.75-28.03,26.21-28.03s26.11,11.52,26.11,28.03-10.75,27.93-26.11,27.93-26.21-11.52-26.21-27.93ZM318.46,279.99c12.67,0,21.31-9.89,21.31-24s-8.64-24.09-21.31-24.09-21.41,9.98-21.41,24.09,8.74,24,21.41,24Z"/>
        <path class="cls-1" d="M353.5,262.04l4.32-1.63c3.26,12.29,12.58,19.1,23.52,19.1,8.93,0,19.58-4.51,19.58-16.13,0-10.85-9.21-12.77-16.89-15.17l-7.01-2.21c-7.58-2.4-20.83-7.01-20.83-20.73s12.48-19.39,23.81-19.39,20.83,5.76,24.38,18.05l-4.13,1.73c-2.88-9.22-10.56-15.36-21.02-15.36-9.89,0-18.14,5.57-18.14,14.59,0,11.04,12.19,14.78,16.7,16.22l7.1,2.3c8.83,2.88,21.21,5.76,21.21,19.2s-12.19,21.31-24.96,21.31c-10.08,0-23.04-4.9-27.65-21.89Z"/>
        <path class="cls-1" d="M421.66,205.5c2.5,0,4.42,2.02,4.42,4.42,0,2.59-1.92,4.61-4.42,4.61s-4.51-2.02-4.51-4.61c0-2.4,1.92-4.42,4.51-4.42ZM419.36,229.5h4.42v52.8h-4.42v-52.8Z"/>
        <path class="cls-1" d="M442.01,229.5h4.22v10.85h.19c4.22-8.83,11.42-12.38,19.01-12.38,7.1,0,15.45,3.17,17.95,13.92h.19c4.99-10.46,12.09-13.92,19.58-13.92,8.83,0,18.91,4.8,18.91,21.31v33.02h-4.42v-31.1c0-15.07-8.16-19.29-15.36-19.29-11.62,0-18.05,11.14-18.05,20.25v30.14h-4.42v-31.1c0-15.07-8.16-19.29-15.36-19.29-11.62,0-18.05,11.14-18.05,20.25v30.14h-4.42v-52.8Z"/>
      </g>
    </g>
  </g>
</svg>